Citadel-Inline.ufo
<glyph name="numbersign" format="1">
  <advance width="485"/>
  <unicode hex="0023"/>
  <outline>
    <contour>
      <point x="472" y="460" type="line"/>
      <point x="409" y="460" type="line"/>
      <point x="384" y="240" type="line"/>
      <point x="441" y="240" type="line"/>
      <point x="441" y="192" type="line"/>
      <point x="378" y="192" type="line"/>
      <point x="356" y="0" type="line"/>
      <point x="235" y="0" type="line"/>
      <point x="257" y="192" type="line"/>
      <point x="191" y="192" type="line"/>
      <point x="169" y="0" type="line"/>
      <point x="48" y="0" type="line"/>
      <point x="70" y="192" type="line"/>
      <point x="13" y="192" type="line"/>
      <point x="13" y="240" type="line"/>
      <point x="76" y="240" type="line"/>
      <point x="101" y="460" type="line"/>
      <point x="44" y="460" type="line"/>
      <point x="44" y="508" type="line"/>
      <point x="107" y="508" type="line"/>
      <point x="129" y="700" type="line"/>
      <point x="250" y="700" type="line"/>
      <point x="228" y="508" type="line"/>
      <point x="294" y="508" type="line"/>
      <point x="316" y="700" type="line"/>
      <point x="437" y="700" type="line"/>
      <point x="415" y="508" type="line"/>
      <point x="472" y="508" type="line"/>
    </contour>
    <contour>
      <point x="379" y="652" type="line"/>
      <point x="364" y="652" type="line"/>
      <point x="293" y="48" type="line"/>
      <point x="308" y="48" type="line"/>
    </contour>
    <contour>
      <point x="288" y="460" type="line"/>
      <point x="222" y="460" type="line"/>
      <point x="197" y="240" type="line"/>
      <point x="263" y="240" type="line"/>
    </contour>
    <contour>
      <point x="192" y="652" type="line"/>
      <point x="177" y="652" type="line"/>
      <point x="106" y="48" type="line"/>
      <point x="121" y="48" type="line"/>
    </contour>
  </outline>
</glyph>
<glyph name="ampersand" format="1">
  <advance width="382"/>
  <unicode hex="0026"/>
  <outline>
    <contour>
      <point x="370" y="329" type="line"/>
      <point x="340" y="329" type="line"/>
      <point x="340" y="70" type="line" smooth="yes"/>
      <point x="340" y="15"/>
      <point x="284" y="-5"/>
      <point x="185" y="-5" type="curve" smooth="yes"/>
      <point x="87" y="-5"/>
      <point x="30" y="15"/>
      <point x="30" y="70" type="curve" smooth="yes"/>
      <point x="30" y="280" type="line" smooth="yes"/>
      <point x="30" y="326"/>
      <point x="51" y="343"/>
      <point x="90" y="353" type="curve"/>
      <point x="51" y="363"/>
      <point x="30" y="380"/>
      <point x="30" y="426" type="curve" smooth="yes"/>
      <point x="30" y="630" type="line" smooth="yes"/>
      <point x="30" y="685"/>
      <point x="87" y="705"/>
      <point x="185" y="705" type="curve" smooth="yes"/>
      <point x="284" y="705"/>
      <point x="340" y="685"/>
      <point x="340" y="630" type="curve" smooth="yes"/>
      <point x="340" y="460" type="line"/>
      <point x="218" y="460" type="line"/>
      <point x="218" y="649" type="line"/>
      <point x="210" y="651"/>
      <point x="195" y="652"/>
      <point x="185" y="652" type="curve" smooth="yes"/>
      <point x="175" y="652"/>
      <point x="160" y="651"/>
      <point x="152" y="649" type="curve"/>
      <point x="152" y="380" type="line"/>
      <point x="160" y="378"/>
      <point x="170" y="377"/>
      <point x="185" y="377" type="curve" smooth="yes"/>
      <point x="370" y="377" type="line"/>
    </contour>
    <contour>
      <point x="286" y="501" type="line"/>
      <point x="286" y="652" type="line"/>
      <point x="272" y="652" type="line"/>
      <point x="272" y="501" type="line"/>
    </contour>
    <contour>
      <point x="98" y="392" type="line"/>
      <point x="98" y="652" type="line"/>
      <point x="84" y="652" type="line"/>
      <point x="84" y="392" type="line"/>
    </contour>
    <contour>
      <point x="286" y="48" type="line"/>
      <point x="286" y="332" type="line"/>
      <point x="272" y="332" type="line"/>
      <point x="272" y="48" type="line"/>
    </contour>
    <contour>
      <point x="218" y="51" type="curve"/>
      <point x="218" y="329" type="line"/>
      <point x="185" y="329" type="line" smooth="yes"/>
      <point x="170" y="329"/>
      <point x="160" y="328"/>
      <point x="152" y="326" type="curve"/>
      <point x="152" y="51" type="line"/>
      <point x="160" y="49"/>
      <point x="175" y="48"/>
      <point x="185" y="48" type="curve" smooth="yes"/>
      <point x="195" y="48"/>
      <point x="210" y="49"/>
    </contour>
    <contour>
      <point x="98" y="48" type="line"/>
      <point x="98" y="314" type="line"/>
      <point x="84" y="314" type="line"/>
      <point x="84" y="48" type="line"/>
    </contour>
  </outline>
</glyph>
<glyph name="quotesingle" format="1">
  <advance width="190"/>
  <unicode hex="0027"/>
  <outline>
    <contour>
      <point x="155" y="460" type="line"/>
      <point x="35" y="460" type="line"/>
      <point x="35" y="700" type="line"/>
      <point x="155" y="700" type="line"/>
    </contour>
    <contour>
      <point x="102" y="497" type="line"/>
      <point x="102" y="663" type="line"/>
      <point x="88" y="663" type="line"/>
      <point x="88" y="497" type="line"/>
    </contour>
  </outline>
</glyph>
<glyph name="parenleft" format="1">
  <advance width="215"/>
  <unicode hex="0028"/>
  <outline>
    <contour>
      <point x="200" y="0" type="line"/>
      <point x="100" y="0" type="line" smooth="yes"/>
      <point x="58" y="0"/>
      <point x="30" y="13"/>
      <point x="30" y="56" type="curve" smooth="yes"/>
      <point x="30" y="644" type="line" smooth="yes"/>
      <point x="30" y="687"/>
      <point x="58" y="700"/>
      <point x="100" y="700" type="curve" smooth="yes"/>
      <point x="200" y="700" type="line"/>
      <point x="200" y="652" type="line"/>
      <point x="150" y="652" type="line"/>
      <point x="150" y="48" type="line"/>
      <point x="200" y="48" type="line"/>
    </contour>
    <contour>
      <point x="97" y="48" type="line"/>
      <point x="97" y="652" type="line"/>
      <point x="83" y="652" type="line"/>
      <point x="83" y="48" type="line"/>
    </contour>
  </outline>
</glyph>
<glyph name="asterisk" format="1">
  <advance width="335"/>
  <unicode hex="002A"/>
  <outline>
    <contour>
      <point x="313" y="408" type="line"/>
      <point x="239" y="408" type="line"/>
      <point x="196" y="469" type="line"/>
      <point x="196" y="333" type="line"/>
      <point x="139" y="333" type="line"/>
      <point x="139" y="468" type="line"/>
      <point x="96" y="408" type="line"/>
      <point x="22" y="408" type="line"/>
      <point x="22" y="454" type="line"/>
      <point x="62" y="454" type="line"/>
      <point x="113" y="517" type="line"/>
      <point x="62" y="579" type="line"/>
      <point x="22" y="579" type="line"/>
      <point x="22" y="625" type="line"/>
      <point x="96" y="625" type="line"/>
      <point x="139" y="564" type="line"/>
      <point x="139" y="700" type="line"/>
      <point x="196" y="700" type="line"/>
      <point x="196" y="565" type="line"/>
      <point x="239" y="625" type="line"/>
      <point x="313" y="625" type="line"/>
      <point x="313" y="579" type="line"/>
      <point x="273" y="579" type="line"/>
      <point x="222" y="516" type="line"/>
      <point x="273" y="454" type="line"/>
      <point x="313" y="454" type="line"/>
    </contour>
  </outline>
</glyph>
<glyph name="comma" format="1">
  <advance width="190"/>
  <unicode hex="002C"/>
  <outline>
    <contour>
      <point x="170" y="137" type="line"/>
      <point x="140" y="-72" type="line"/>
      <point x="20" y="-72" type="line"/>
      <point x="50" y="137" type="line"/>
    </contour>
    <contour>
      <point x="112" y="100" type="line"/>
      <point x="98" y="100" type="line"/>
      <point x="78" y="-35" type="line"/>
      <point x="92" y="-35" type="line"/>
    </contour>
  </outline>
</glyph>
<glyph name="hyphen" format="1">
  <advance width="230"/>
  <unicode hex="002D"/>
  <unicode hex="2010"/>
  <unicode hex="2011"/>
  <outline>
    <contour>
      <point x="205" y="324" type="line"/>
      <point x="25" y="324" type="line"/>
      <point x="25" y="382" type="line"/>
      <point x="205" y="382" type="line"/>
    </contour>
  </outline>
</glyph>
<glyph name="period" format="1">
  <advance width="190"/>
  <unicode hex="002E"/>
  <outline>
    <contour>
      <point x="155" y="0" type="line"/>
      <point x="35" y="0" type="line"/>
      <point x="35" y="137" type="line"/>
      <point x="155" y="137" type="line"/>
    </contour>
    <contour>
      <point x="102" y="37" type="line"/>
      <point x="102" y="100" type="line"/>
      <point x="88" y="100" type="line"/>
      <point x="88" y="37" type="line"/>
    </contour>
  </outline>
</glyph>
<glyph name="zero" format="1">
  <advance width="378"/>
  <unicode hex="0030"/>
  <outline>
    <contour>
      <point x="348" y="70" type="line" smooth="yes"/>
      <point x="348" y="15"/>
      <point x="292" y="-5"/>
      <point x="189" y="-5" type="curve" smooth="yes"/>
      <point x="87" y="-5"/>
      <point x="30" y="15"/>
      <point x="30" y="70" type="curve" smooth="yes"/>
      <point x="30" y="630" type="line" smooth="yes"/>
      <point x="30" y="685"/>
      <point x="87" y="705"/>
      <point x="189" y="705" type="curve" smooth="yes"/>
      <point x="292" y="705"/>
      <point x="348" y="685"/>
      <point x="348" y="630" type="curve" smooth="yes"/>
    </contour>
    <contour>
      <point x="294" y="48" type="line"/>
      <point x="294" y="652" type="line"/>
      <point x="280" y="652" type="line"/>
      <point x="280" y="48" type="line"/>
    </contour>
    <contour>
      <point x="226" y="51" type="curve"/>
      <point x="226" y="649" type="line"/>
      <point x="218" y="651"/>
      <point x="199" y="652"/>
      <point x="189" y="652" type="curve" smooth="yes"/>
      <point x="179" y="652"/>
      <point x="160" y="651"/>
      <point x="152" y="649" type="curve"/>
      <point x="152" y="51" type="line"/>
      <point x="160" y="49"/>
      <point x="179" y="48"/>
      <point x="189" y="48" type="curve" smooth="yes"/>
      <point x="199" y="48"/>
      <point x="218" y="49"/>
    </contour>
    <contour>
      <point x="98" y="48" type="line"/>
      <point x="98" y="652" type="line"/>
      <point x="84" y="652" type="line"/>
      <point x="84" y="48" type="line"/>
    </contour>
  </outline>
</glyph>
<glyph name="one" format="1">
  <advance width="225"/>
  <unicode hex="0031"/>
  <outline>
    <contour>
      <point x="206" y="0" type="line"/>
      <point x="24" y="0" type="line"/>
      <point x="24" y="48" type="line"/>
      <point x="54" y="48" type="line"/>
      <point x="54" y="652" type="line"/>
      <point x="24" y="652" type="line"/>
      <point x="24" y="700" type="line"/>
      <point x="176" y="700" type="line"/>
      <point x="176" y="48" type="line"/>
      <point x="206" y="48" type="line"/>
    </contour>
    <contour>
      <point x="122" y="45" type="line"/>
      <point x="122" y="655" type="line"/>
      <point x="108" y="655" type="line"/>
      <point x="108" y="45" type="line"/>
    </contour>
  </outline>
</glyph>
<glyph name="two" format="1">
  <advance width="374"/>
  <unicode hex="0032"/>
  <outline>
    <contour>
      <point x="344" y="0" type="line"/>
      <point x="30" y="0" type="line"/>
      <point x="30" y="228" type="line" smooth="yes"/>
      <point x="30" y="263"/>
      <point x="48" y="290"/>
      <point x="78" y="320" type="curve" smooth="yes"/>
      <point x="222" y="466" type="line"/>
      <point x="222" y="649" type="line"/>
      <point x="214" y="651"/>
      <point x="197" y="652"/>
      <point x="187" y="652" type="curve" smooth="yes"/>
      <point x="177" y="652"/>
      <point x="160" y="651"/>
      <point x="152" y="649" type="curve"/>
      <point x="152" y="460" type="line"/>
      <point x="30" y="460" type="line"/>
      <point x="30" y="630" type="line" smooth="yes"/>
      <point x="30" y="685"/>
      <point x="86" y="705"/>
      <point x="187" y="705" type="curve" smooth="yes"/>
      <point x="287" y="705"/>
      <point x="344" y="685"/>
      <point x="344" y="630" type="curve" smooth="yes"/>
      <point x="344" y="470" type="line" smooth="yes"/>
      <point x="344" y="435"/>
      <point x="326" y="411"/>
      <point x="293" y="377" type="curve" smooth="yes"/>
      <point x="152" y="233" type="line"/>
      <point x="152" y="48" type="line"/>
      <point x="222" y="48" type="line"/>
      <point x="222" y="240" type="line"/>
      <point x="344" y="240" type="line"/>
    </contour>
    <contour>
      <point x="98" y="501" type="line"/>
      <point x="98" y="652" type="line"/>
      <point x="84" y="652" type="line"/>
      <point x="84" y="501" type="line"/>
    </contour>
    <contour>
      <point x="290" y="454" type="curve" smooth="yes"/>
      <point x="290" y="652" type="line"/>
      <point x="276" y="652" type="line"/>
      <point x="276" y="451" type="line"/>
      <point x="92" y="259" type="line" smooth="yes"/>
      <point x="87" y="254"/>
      <point x="84" y="247"/>
      <point x="84" y="240" type="curve" smooth="yes"/>
      <point x="84" y="45" type="line"/>
      <point x="98" y="45" type="line"/>
      <point x="98" y="245" type="line"/>
      <point x="281" y="436" type="line" smooth="yes"/>
      <point x="287" y="442"/>
      <point x="290" y="447"/>
    </contour>
    <contour>
      <point x="290" y="45" type="line"/>
      <point x="290" y="199" type="line"/>
      <point x="276" y="199" type="line"/>
      <point x="276" y="45" type="line"/>
    </contour>
  </outline>
</glyph>
<glyph name="four" format="1">
  <advance width="352"/>
  <unicode hex="0034"/>
  <outline>
    <contour>
      <point x="332" y="0" type="line"/>
      <point x="150" y="0" type="line"/>
      <point x="150" y="48" type="line"/>
      <point x="180" y="48" type="line"/>
      <point x="180" y="192" type="line"/>
      <point x="3" y="192" type="line"/>
      <point x="3" y="240" type="line"/>
      <point x="180" y="700" type="line"/>
      <point x="302" y="700" type="line"/>
      <point x="302" y="240" type="line"/>
      <point x="332" y="240" type="line"/>
      <point x="332" y="192" type="line"/>
      <point x="302" y="192" type="line"/>
      <point x="302" y="48" type="line"/>
      <point x="332" y="48" type="line"/>
    </contour>
    <contour>
      <point x="180" y="240" type="line"/>
      <point x="180" y="553" type="line"/>
      <point x="60" y="240" type="line"/>
    </contour>
    <contour>
      <point x="248" y="45" type="line"/>
      <point x="248" y="652" type="line"/>
      <point x="234" y="652" type="line"/>
      <point x="234" y="45" type="line"/>
    </contour>
  </outline>
</glyph>
<glyph name="nine" format="1">
  <advance width="370"/>
  <unicode hex="0039"/>
  <outline>
    <contour>
      <point x="340" y="70" type="line" smooth="yes"/>
      <point x="340" y="15"/>
      <point x="283" y="-5"/>
      <point x="185" y="-5" type="curve" smooth="yes"/>
      <point x="86" y="-5"/>
      <point x="30" y="15"/>
      <point x="30" y="70" type="curve" smooth="yes"/>
      <point x="30" y="240" type="line"/>
      <point x="152" y="240" type="line"/>
      <point x="152" y="51" type="line"/>
      <point x="160" y="49"/>
      <point x="175" y="48"/>
      <point x="185" y="48" type="curve" smooth="yes"/>
      <point x="195" y="48"/>
      <point x="210" y="49"/>
      <point x="218" y="51" type="curve"/>
      <point x="218" y="288" type="line"/>
      <point x="185" y="288" type="line" smooth="yes"/>
      <point x="86" y="288"/>
      <point x="30" y="308"/>
      <point x="30" y="363" type="curve" smooth="yes"/>
      <point x="30" y="630" type="line" smooth="yes"/>
      <point x="30" y="685"/>
      <point x="86" y="705"/>
      <point x="185" y="705" type="curve" smooth="yes"/>
      <point x="283" y="705"/>
      <point x="340" y="685"/>
      <point x="340" y="630" type="curve" smooth="yes"/>
    </contour>
    <contour>
      <point x="98" y="341" type="line"/>
      <point x="98" y="652" type="line"/>
      <point x="84" y="652" type="line"/>
      <point x="84" y="341" type="line"/>
    </contour>
    <contour>
      <point x="218" y="336" type="line"/>
      <point x="218" y="649" type="line"/>
      <point x="210" y="651"/>
      <point x="195" y="652"/>
      <point x="185" y="652" type="curve" smooth="yes"/>
      <point x="175" y="652"/>
      <point x="160" y="651"/>
      <point x="152" y="649" type="curve"/>
      <point x="152" y="339" type="line"/>
      <point x="160" y="337"/>
      <point x="173" y="336"/>
      <point x="185" y="336" type="curve" smooth="yes"/>
    </contour>
    <contour>
      <point x="286" y="48" type="line"/>
      <point x="286" y="652" type="line"/>
      <point x="272" y="652" type="line"/>
      <point x="272" y="48" type="line"/>
    </contour>
    <contour>
      <point x="98" y="48" type="line"/>
      <point x="98" y="199" type="line"/>
      <point x="84" y="199" type="line"/>
      <point x="84" y="48" type="line"/>
    </contour>
  </outline>
</glyph>
<glyph name="colon" format="1">
  <advance width="190"/>
  <unicode hex="003A"/>
  <outline>
    <contour>
      <point x="155" y="285" type="line"/>
      <point x="35" y="285" type="line"/>
      <point x="35" y="422" type="line"/>
      <point x="155" y="422" type="line"/>
    </contour>
    <contour>
      <point x="155" y="0" type="line"/>
      <point x="35" y="0" type="line"/>
      <point x="35" y="137" type="line"/>
      <point x="155" y="137" type="line"/>
    </contour>
    <contour>
      <point x="102" y="322" type="line"/>
      <point x="102" y="385" type="line"/>
      <point x="88" y="385" type="line"/>
      <point x="88" y="322" type="line"/>
    </contour>
    <contour>
      <point x="102" y="37" type="line"/>
      <point x="102" y="100" type="line"/>
      <point x="88" y="100" type="line"/>
      <point x="88" y="37" type="line"/>
    </contour>
  </outline>
</glyph>
<glyph name="semicolon" format="1">
  <advance width="190"/>
  <unicode hex="003B"/>
  <outline>
    <contour>
      <point x="162" y="285" type="line"/>
      <point x="42" y="285" type="line"/>
      <point x="42" y="422" type="line"/>
      <point x="162" y="422" type="line"/>
    </contour>
    <contour>
      <point x="162" y="137" type="line"/>
      <point x="132" y="-72" type="line"/>
      <point x="12" y="-72" type="line"/>
      <point x="42" y="137" type="line"/>
    </contour>
    <contour>
      <point x="109" y="322" type="line"/>
      <point x="109" y="385" type="line"/>
      <point x="95" y="385" type="line"/>
      <point x="95" y="322" type="line"/>
    </contour>
    <contour>
      <point x="104" y="100" type="line"/>
      <point x="90" y="100" type="line"/>
      <point x="70" y="-35" type="line"/>
      <point x="84" y="-35" type="line"/>
    </contour>
  </outline>
</glyph>
<glyph name="less" format="1">
  <advance width="245"/>
  <unicode hex="003C"/>
  <outline>
    <contour>
      <point x="213" y="223" type="line"/>
      <point x="25" y="329" type="line"/>
      <point x="25" y="377" type="line"/>
      <point x="213" y="483" type="line"/>
      <point x="213" y="419" type="line"/>
      <point x="89" y="353" type="line"/>
      <point x="213" y="287" type="line"/>
    </contour>
  </outline>
</glyph>
<glyph name="greater" format="1">
  <advance width="245"/>
  <unicode hex="003E"/>
  <outline>
    <contour>
      <point x="220" y="329" type="line"/>
      <point x="32" y="223" type="line"/>
      <point x="32" y="287" type="line"/>
      <point x="156" y="353" type="line"/>
      <point x="32" y="419" type="line"/>
      <point x="32" y="483" type="line"/>
      <point x="220" y="377" type="line"/>
    </contour>
  </outline>
</glyph>
<glyph name="question" format="1">
  <advance width="356"/>
  <unicode hex="003F"/>
  <outline>
    <contour>
      <point x="333" y="496" type="line" smooth="yes"/>
      <point x="333" y="475"/>
      <point x="328" y="461"/>
      <point x="316" y="439" type="curve" smooth="yes"/>
      <point x="224" y="270" type="line"/>
      <point x="224" y="189" type="line"/>
      <point x="104" y="189" type="line"/>
      <point x="104" y="265" type="line" smooth="yes"/>
      <point x="104" y="286"/>
      <point x="109" y="300"/>
      <point x="121" y="322" type="curve" smooth="yes"/>
      <point x="213" y="491" type="line"/>
      <point x="213" y="649" type="line"/>
      <point x="205" y="651"/>
      <point x="187" y="652"/>
      <point x="177" y="652" type="curve" smooth="yes"/>
      <point x="167" y="652"/>
      <point x="149" y="651"/>
      <point x="141" y="649" type="curve"/>
      <point x="141" y="460" type="line"/>
      <point x="19" y="460" type="line"/>
      <point x="19" y="630" type="line" smooth="yes"/>
      <point x="19" y="685"/>
      <point x="76" y="705"/>
      <point x="177" y="705" type="curve" smooth="yes"/>
      <point x="277" y="705"/>
      <point x="333" y="685"/>
      <point x="333" y="630" type="curve" smooth="yes"/>
    </contour>
    <contour>
      <point x="224" y="0" type="line"/>
      <point x="104" y="0" type="line"/>
      <point x="104" y="137" type="line"/>
      <point x="224" y="137" type="line"/>
    </contour>
    <contour>
      <point x="87" y="501" type="line"/>
      <point x="87" y="652" type="line"/>
      <point x="73" y="652" type="line"/>
      <point x="73" y="501" type="line"/>
    </contour>
    <contour>
      <point x="280" y="487" type="curve" smooth="yes"/>
      <point x="280" y="652" type="line"/>
      <point x="266" y="652" type="line"/>
      <point x="266" y="479" type="line"/>
      <point x="162" y="293" type="line" smooth="yes"/>
      <point x="159" y="287"/>
      <point x="157" y="281"/>
      <point x="157" y="274" type="curve" smooth="yes"/>
      <point x="157" y="237" type="line"/>
      <point x="171" y="237" type="line"/>
      <point x="171" y="282" type="line"/>
      <point x="275" y="468" type="line" smooth="yes"/>
      <point x="278" y="474"/>
      <point x="280" y="480"/>
    </contour>
    <contour>
      <point x="171" y="37" type="line"/>
      <point x="171" y="100" type="line"/>
      <point x="157" y="100" type="line"/>
      <point x="157" y="37" type="line"/>
    </contour>
  </outline>
</glyph>
<glyph name="at" format="1">
  <advance width="465"/>
  <unicode hex="0040"/>
  <outline>
    <contour>
      <point x="434" y="0" type="line"/>
      <point x="219" y="0" type="line" smooth="yes"/>
      <point x="123" y="0"/>
      <point x="30" y="12"/>
      <point x="30" y="95" type="curve" smooth="yes"/>
      <point x="30" y="610" type="line" smooth="yes"/>
      <point x="30" y="693"/>
      <point x="126" y="705"/>
      <point x="232" y="705" type="curve" smooth="yes"/>
      <point x="339" y="705"/>
      <point x="434" y="693"/>
      <point x="434" y="610" type="curve" smooth="yes"/>
      <point x="434" y="161" type="line" smooth="yes"/>
      <point x="434" y="116"/>
      <point x="404" y="87"/>
      <point x="339" y="87" type="curve" smooth="yes"/>
      <point x="254" y="87" type="line"/>
      <point x="254" y="109" type="line"/>
      <point x="229" y="94"/>
      <point x="199" y="83"/>
      <point x="174" y="83" type="curve" smooth="yes"/>
      <point x="145" y="83"/>
      <point x="123" y="92"/>
      <point x="123" y="123" type="curve" smooth="yes"/>
      <point x="123" y="581" type="line" smooth="yes"/>
      <point x="123" y="612"/>
      <point x="145" y="621"/>
      <point x="174" y="621" type="curve" smooth="yes"/>
      <point x="199" y="621"/>
      <point x="229" y="610"/>
      <point x="254" y="595" type="curve"/>
      <point x="254" y="617" type="line"/>
      <point x="341" y="617" type="line"/>
      <point x="341" y="119" type="line"/>
      <point x="353" y="119" type="line" smooth="yes"/>
      <point x="383" y="119"/>
      <point x="398" y="133"/>
      <point x="398" y="162" type="curve" smooth="yes"/>
      <point x="398" y="610" type="line" smooth="yes"/>
      <point x="398" y="670"/>
      <point x="313" y="674"/>
      <point x="232" y="674" type="curve" smooth="yes"/>
      <point x="152" y="674"/>
      <point x="66" y="670"/>
      <point x="66" y="610" type="curve" smooth="yes"/>
      <point x="66" y="95" type="line" smooth="yes"/>
      <point x="66" y="36"/>
      <point x="150" y="29"/>
      <point x="219" y="29" type="curve" smooth="yes"/>
      <point x="434" y="29" type="line"/>
    </contour>
    <contour>
      <point x="303" y="120" type="line"/>
      <point x="303" y="584" type="line"/>
      <point x="293" y="584" type="line"/>
      <point x="293" y="120" type="line"/>
    </contour>
    <contour>
      <point x="254" y="141" type="curve"/>
      <point x="254" y="563" type="line"/>
      <point x="241" y="569"/>
      <point x="222" y="572"/>
      <point x="210" y="574" type="curve"/>
      <point x="210" y="130" type="line"/>
      <point x="222" y="132"/>
      <point x="241" y="135"/>
    </contour>
    <contour>
      <point x="171" y="120" type="line"/>
      <point x="171" y="584" type="line"/>
      <point x="161" y="584" type="line"/>
      <point x="161" y="120" type="line"/>
    </contour>
  </outline>
</glyph>
<glyph name="A" format="1">
  <advance width="368"/>
  <unicode hex="0041"/>
  <outline>
    <contour>
      <point x="363" y="0" type="line"/>
      <point x="209" y="0" type="line"/>
      <point x="195" y="129" type="line"/>
      <point x="110" y="129" type="line"/>
      <point x="101" y="48" type="line"/>
      <point x="137" y="48" type="line"/>
      <point x="137" y="0" type="line"/>
      <point x="5" y="0" type="line"/>
      <point x="5" y="48" type="line"/>
      <point x="37" y="48" type="line"/>
      <point x="121" y="700" type="line"/>
      <point x="247" y="700" type="line"/>
      <point x="331" y="48" type="line"/>
      <point x="363" y="48" type="line"/>
    </contour>
    <contour>
      <point x="277" y="45" type="line"/>
      <point x="202" y="652" type="line"/>
      <point x="187" y="652" type="line"/>
      <point x="262" y="45" type="line"/>
    </contour>
    <contour>
      <point x="189" y="177" type="line"/>
      <point x="152" y="519" type="line"/>
      <point x="115" y="177" type="line"/>
    </contour>
  </outline>
</glyph>
<glyph name="E" format="1">
  <advance width="392"/>
  <unicode hex="0045"/>
  <outline>
    <contour>
      <point x="358" y="0" type="line"/>
      <point x="20" y="0" type="line"/>
      <point x="20" y="48" type="line"/>
      <point x="50" y="48" type="line"/>
      <point x="50" y="652" type="line"/>
      <point x="20" y="652" type="line"/>
      <point x="20" y="700" type="line"/>
      <point x="358" y="700" type="line"/>
      <point x="358" y="460" type="line"/>
      <point x="234" y="460" type="line"/>
      <point x="234" y="652" type="line"/>
      <point x="174" y="652" type="line"/>
      <point x="174" y="377" type="line"/>
      <point x="284" y="377" type="line"/>
      <point x="284" y="329" type="line"/>
      <point x="174" y="329" type="line"/>
      <point x="174" y="48" type="line"/>
      <point x="234" y="48" type="line"/>
      <point x="234" y="240" type="line"/>
      <point x="358" y="240" type="line"/>
    </contour>
    <contour>
      <point x="303" y="501" type="line"/>
      <point x="303" y="655" type="line"/>
      <point x="289" y="655" type="line"/>
      <point x="289" y="501" type="line"/>
    </contour>
    <contour>
      <point x="119" y="45" type="line"/>
      <point x="119" y="655" type="line"/>
      <point x="105" y="655" type="line"/>
      <point x="105" y="45" type="line"/>
    </contour>
    <contour>
      <point x="303" y="45" type="line"/>
      <point x="303" y="199" type="line"/>
      <point x="289" y="199" type="line"/>
      <point x="289" y="45" type="line"/>
    </contour>
  </outline>
</glyph>
<glyph name="F" format="1">
  <advance width="371"/>
  <unicode hex="0046"/>
  <outline>
    <contour>
      <point x="348" y="460" type="line"/>
      <point x="224" y="460" type="line"/>
      <point x="224" y="652" type="line"/>
      <point x="174" y="652" type="line"/>
      <point x="174" y="377" type="line"/>
      <point x="274" y="377" type="line"/>
      <point x="274" y="329" type="line"/>
      <point x="174" y="329" type="line"/>
      <point x="174" y="48" type="line"/>
      <point x="204" y="48" type="line"/>
      <point x="204" y="0" type="line"/>
      <point x="20" y="0" type="line"/>
      <point x="20" y="48" type="line"/>
      <point x="50" y="48" type="line"/>
      <point x="50" y="652" type="line"/>
      <point x="20" y="652" type="line"/>
      <point x="20" y="700" type="line"/>
      <point x="348" y="700" type="line"/>
    </contour>
    <contour>
      <point x="293" y="501" type="line"/>
      <point x="293" y="655" type="line"/>
      <point x="279" y="655" type="line"/>
      <point x="279" y="501" type="line"/>
    </contour>
    <contour>
      <point x="119" y="45" type="line"/>
      <point x="119" y="655" type="line"/>
      <point x="105" y="655" type="line"/>
      <point x="105" y="45" type="line"/>
    </contour>
  </outline>
</glyph>
<glyph name="H" format="1">
  <advance width="422"/>
  <unicode hex="0048"/>
  <outline>
    <contour>
      <point x="402" y="0" type="line"/>
      <point x="228" y="0" type="line"/>
      <point x="228" y="48" type="line"/>
      <point x="248" y="48" type="line"/>
      <point x="248" y="329" type="line"/>
      <point x="174" y="329" type="line"/>
      <point x="174" y="48" type="line"/>
      <point x="194" y="48" type="line"/>
      <point x="194" y="0" type="line"/>
      <point x="20" y="0" type="line"/>
      <point x="20" y="48" type="line"/>
      <point x="50" y="48" type="line"/>
      <point x="50" y="652" type="line"/>
      <point x="20" y="652" type="line"/>
      <point x="20" y="700" type="line"/>
      <point x="194" y="700" type="line"/>
      <point x="194" y="652" type="line"/>
      <point x="174" y="652" type="line"/>
      <point x="174" y="377" type="line"/>
      <point x="248" y="377" type="line"/>
      <point x="248" y="652" type="line"/>
      <point x="228" y="652" type="line"/>
      <point x="228" y="700" type="line"/>
      <point x="402" y="700" type="line"/>
      <point x="402" y="652" type="line"/>
      <point x="372" y="652" type="line"/>
      <point x="372" y="48" type="line"/>
      <point x="402" y="48" type="line"/>
    </contour>
    <contour>
      <point x="317" y="45" type="line"/>
      <point x="317" y="655" type="line"/>
      <point x="303" y="655" type="line"/>
      <point x="303" y="45" type="line"/>
    </contour>
    <contour>
      <point x="119" y="45" type="line"/>
      <point x="119" y="655" type="line"/>
      <point x="105" y="655" type="line"/>
      <point x="105" y="45" type="line"/>
    </contour>
  </outline>
</glyph>
<glyph name="J" format="1">
  <advance width="373"/>
  <unicode hex="004A"/>
  <outline>
    <contour>
      <point x="358" y="652" type="line"/>
      <point x="328" y="652" type="line"/>
      <point x="328" y="70" type="line" smooth="yes"/>
      <point x="328" y="15"/>
      <point x="278" y="-5"/>
      <point x="174" y="-5" type="curve" smooth="yes"/>
      <point x="71" y="-5"/>
      <point x="20" y="15"/>
      <point x="20" y="70" type="curve" smooth="yes"/>
      <point x="20" y="240" type="line"/>
      <point x="144" y="240" type="line"/>
      <point x="144" y="51" type="line"/>
      <point x="152" y="49"/>
      <point x="166" y="48"/>
      <point x="174" y="48" type="curve" smooth="yes"/>
      <point x="182" y="48"/>
      <point x="196" y="49"/>
      <point x="204" y="51" type="curve"/>
      <point x="204" y="652" type="line"/>
      <point x="174" y="652" type="line"/>
      <point x="174" y="700" type="line"/>
      <point x="358" y="700" type="line"/>
    </contour>
    <contour>
      <point x="273" y="48" type="line"/>
      <point x="273" y="655" type="line"/>
      <point x="259" y="655" type="line"/>
      <point x="259" y="48" type="line"/>
    </contour>
    <contour>
      <point x="89" y="48" type="line"/>
      <point x="89" y="199" type="line"/>
      <point x="75" y="199" type="line"/>
      <point x="75" y="48" type="line"/>
    </contour>
  </outline>
</glyph>
<glyph name="K" format="1">
  <advance width="409"/>
  <unicode hex="004B"/>
  <outline>
    <contour>
      <point x="402" y="0" type="line"/>
      <point x="257" y="0" type="line"/>
      <point x="174" y="320" type="line"/>
      <point x="174" y="48" type="line"/>
      <point x="204" y="48" type="line"/>
      <point x="204" y="0" type="line"/>
      <point x="20" y="0" type="line"/>
      <point x="20" y="48" type="line"/>
      <point x="50" y="48" type="line"/>
      <point x="50" y="652" type="line"/>
      <point x="20" y="652" type="line"/>
      <point x="20" y="700" type="line"/>
      <point x="204" y="700" type="line"/>
      <point x="204" y="652" type="line"/>
      <point x="174" y="652" type="line"/>
      <point x="174" y="391" type="line"/>
      <point x="292" y="652" type="line"/>
      <point x="261" y="652" type="line"/>
      <point x="261" y="700" type="line"/>
      <point x="390" y="700" type="line"/>
      <point x="390" y="652" type="line"/>
      <point x="360" y="652" type="line"/>
      <point x="265" y="451" type="line"/>
      <point x="372" y="48" type="line"/>
      <point x="402" y="48" type="line"/>
    </contour>
    <contour>
      <point x="119" y="45" type="line"/>
      <point x="119" y="655" type="line"/>
      <point x="105" y="655" type="line"/>
      <point x="105" y="45" type="line"/>
    </contour>
    <contour>
      <point x="317" y="45" type="line"/>
      <point x="227" y="384" type="line"/>
      <point x="219" y="361" type="line"/>
      <point x="303" y="45" type="line"/>
    </contour>
  </outline>
</glyph>
<glyph name="M" format="1">
  <advance width="495"/>
  <unicode hex="004D"/>
  <outline>
    <contour>
      <point x="475" y="0" type="line"/>
      <point x="327" y="0" type="line"/>
      <point x="327" y="499" type="line"/>
      <point x="266" y="0" type="line"/>
      <point x="166" y="0" type="line"/>
      <point x="105" y="499" type="line"/>
      <point x="105" y="0" type="line"/>
      <point x="20" y="0" type="line"/>
      <point x="20" y="48" type="line"/>
      <point x="50" y="48" type="line"/>
      <point x="50" y="652" type="line"/>
      <point x="20" y="652" type="line"/>
      <point x="20" y="700" type="line"/>
      <point x="187" y="700" type="line"/>
      <point x="245" y="216" type="line"/>
      <point x="307" y="700" type="line"/>
      <point x="475" y="700" type="line"/>
      <point x="475" y="652" type="line"/>
      <point x="445" y="652" type="line"/>
      <point x="445" y="48" type="line"/>
      <point x="475" y="48" type="line"/>
    </contour>
    <contour>
      <point x="393" y="45" type="line"/>
      <point x="393" y="655" type="line"/>
      <point x="379" y="655" type="line"/>
      <point x="379" y="45" type="line"/>
    </contour>
    <contour>
      <point x="222" y="45" type="line"/>
      <point x="141" y="655" type="line"/>
      <point x="127" y="655" type="line"/>
      <point x="208" y="45" type="line"/>
    </contour>
  </outline>
</glyph>
<glyph name="N" format="1">
  <advance width="387"/>
  <unicode hex="004E"/>
  <outline>
    <contour>
      <point x="372" y="652" type="line"/>
      <point x="342" y="652" type="line"/>
      <point x="342" y="0" type="line"/>
      <point x="246" y="0" type="line"/>
      <point x="110" y="468" type="line"/>
      <point x="110" y="48" type="line"/>
      <point x="140" y="48" type="line"/>
      <point x="140" y="0" type="line"/>
      <point x="20" y="0" type="line"/>
      <point x="20" y="48" type="line"/>
      <point x="50" y="48" type="line"/>
      <point x="50" y="652" type="line"/>
      <point x="20" y="652" type="line"/>
      <point x="20" y="700" type="line"/>
      <point x="167" y="700" type="line"/>
      <point x="282" y="292" type="line"/>
      <point x="282" y="652" type="line"/>
      <point x="252" y="652" type="line"/>
      <point x="252" y="700" type="line"/>
      <point x="372" y="700" type="line"/>
    </contour>
    <contour>
      <point x="303" y="45" type="line"/>
      <point x="120" y="655" type="line"/>
      <point x="105" y="655" type="line"/>
      <point x="288" y="45" type="line"/>
    </contour>
  </outline>
</glyph>
<glyph name="O" format="1">
  <advance width="384"/>
  <unicode hex="004F"/>
  <outline>
    <contour>
      <point x="354" y="70" type="line" smooth="yes"/>
      <point x="354" y="15"/>
      <point x="299" y="-5"/>
      <point x="192" y="-5" type="curve" smooth="yes"/>
      <point x="86" y="-5"/>
      <point x="30" y="15"/>
      <point x="30" y="70" type="curve" smooth="yes"/>
      <point x="30" y="630" type="line" smooth="yes"/>
      <point x="30" y="685"/>
      <point x="86" y="705"/>
      <point x="192" y="705" type="curve" smooth="yes"/>
      <point x="299" y="705"/>
      <point x="354" y="685"/>
      <point x="354" y="630" type="curve" smooth="yes"/>
    </contour>
    <contour>
      <point x="299" y="48" type="line"/>
      <point x="299" y="652" type="line"/>
      <point x="285" y="652" type="line"/>
      <point x="285" y="48" type="line"/>
    </contour>
    <contour>
      <point x="230" y="51" type="curve"/>
      <point x="230" y="649" type="line"/>
      <point x="222" y="651"/>
      <point x="203" y="652"/>
      <point x="192" y="652" type="curve" smooth="yes"/>
      <point x="181" y="652"/>
      <point x="162" y="651"/>
      <point x="154" y="649" type="curve"/>
      <point x="154" y="51" type="line"/>
      <point x="162" y="49"/>
      <point x="181" y="48"/>
      <point x="192" y="48" type="curve" smooth="yes"/>
      <point x="203" y="48"/>
      <point x="222" y="49"/>
    </contour>
    <contour>
      <point x="99" y="48" type="line"/>
      <point x="99" y="652" type="line"/>
      <point x="85" y="652" type="line"/>
      <point x="85" y="48" type="line"/>
    </contour>
  </outline>
</glyph>
<glyph name="Q" format="1">
  <advance width="384"/>
  <unicode hex="0051"/>
  <outline>
    <contour>
      <point x="354" y="70" type="line" smooth="yes"/>
      <point x="354" y="27"/>
      <point x="320" y="5"/>
      <point x="254" y="-2" type="curve"/>
      <point x="254" y="-52" type="line"/>
      <point x="284" y="-52" type="line"/>
      <point x="284" y="-100" type="line"/>
      <point x="100" y="-100" type="line"/>
      <point x="100" y="-52" type="line"/>
      <point x="130" y="-52" type="line"/>
      <point x="130" y="-2" type="line"/>
      <point x="64" y="5"/>
      <point x="30" y="27"/>
      <point x="30" y="70" type="curve" smooth="yes"/>
      <point x="30" y="630" type="line" smooth="yes"/>
      <point x="30" y="685"/>
      <point x="86" y="705"/>
      <point x="192" y="705" type="curve" smooth="yes"/>
      <point x="299" y="705"/>
      <point x="354" y="685"/>
      <point x="354" y="630" type="curve" smooth="yes"/>
    </contour>
    <contour>
      <point x="299" y="48" type="line"/>
      <point x="299" y="652" type="line"/>
      <point x="285" y="652" type="line"/>
      <point x="285" y="48" type="line"/>
    </contour>
    <contour>
      <point x="230" y="51" type="curve"/>
      <point x="230" y="649" type="line"/>
      <point x="222" y="651"/>
      <point x="203" y="652"/>
      <point x="192" y="652" type="curve" smooth="yes"/>
      <point x="181" y="652"/>
      <point x="162" y="651"/>
      <point x="154" y="649" type="curve"/>
      <point x="154" y="51" type="line"/>
      <point x="162" y="49"/>
      <point x="181" y="48"/>
      <point x="192" y="48" type="curve" smooth="yes"/>
      <point x="203" y="48"/>
      <point x="222" y="49"/>
    </contour>
    <contour>
      <point x="99" y="48" type="line"/>
      <point x="99" y="652" type="line"/>
      <point x="85" y="652" type="line"/>
      <point x="85" y="48" type="line"/>
    </contour>
    <contour>
      <point x="199" y="-57" type="line"/>
      <point x="199" y="13" type="line"/>
      <point x="185" y="13" type="line"/>
      <point x="185" y="-57" type="line"/>
    </contour>
  </outline>
</glyph>
<glyph name="R" format="1">
  <advance width="404"/>
  <unicode hex="0052"/>
  <outline>
    <contour>
      <point x="389" y="0" type="line"/>
      <point x="238" y="0" type="line"/>
      <point x="238" y="326" type="line"/>
      <point x="230" y="328"/>
      <point x="220" y="329"/>
      <point x="205" y="329" type="curve" smooth="yes"/>
      <point x="174" y="329" type="line"/>
      <point x="174" y="48" type="line"/>
      <point x="204" y="48" type="line"/>
      <point x="204" y="0" type="line"/>
      <point x="20" y="0" type="line"/>
      <point x="20" y="48" type="line"/>
      <point x="50" y="48" type="line"/>
      <point x="50" y="652" type="line"/>
      <point x="20" y="652" type="line"/>
      <point x="20" y="700" type="line"/>
      <point x="206" y="700" type="line" smooth="yes"/>
      <point x="307" y="700"/>
      <point x="362" y="680"/>
      <point x="362" y="625" type="curve" smooth="yes"/>
      <point x="362" y="426" type="line" smooth="yes"/>
      <point x="362" y="380"/>
      <point x="341" y="363"/>
      <point x="302" y="353" type="curve"/>
      <point x="341" y="343"/>
      <point x="362" y="326"/>
      <point x="362" y="280" type="curve" smooth="yes"/>
      <point x="362" y="48" type="line"/>
      <point x="389" y="48" type="line"/>
    </contour>
    <contour>
      <point x="307" y="392" type="line"/>
      <point x="307" y="652" type="line"/>
      <point x="293" y="652" type="line"/>
      <point x="293" y="392" type="line"/>
    </contour>
    <contour>
      <point x="238" y="380" type="curve"/>
      <point x="238" y="649" type="line"/>
      <point x="230" y="651"/>
      <point x="220" y="652"/>
      <point x="205" y="652" type="curve" smooth="yes"/>
      <point x="174" y="652" type="line"/>
      <point x="174" y="377" type="line"/>
      <point x="205" y="377" type="line" smooth="yes"/>
      <point x="220" y="377"/>
      <point x="230" y="378"/>
    </contour>
    <contour>
      <point x="119" y="45" type="line"/>
      <point x="119" y="655" type="line"/>
      <point x="105" y="655" type="line"/>
      <point x="105" y="45" type="line"/>
    </contour>
    <contour>
      <point x="307" y="45" type="line"/>
      <point x="307" y="314" type="line"/>
      <point x="293" y="314" type="line"/>
      <point x="293" y="45" type="line"/>
    </contour>
  </outline>
</glyph>
<glyph name="S" format="1">
  <advance width="374"/>
  <unicode hex="0053"/>
  <outline>
    <contour>
      <point x="344" y="70" type="line" smooth="yes"/>
      <point x="344" y="15"/>
      <point x="288" y="-5"/>
      <point x="187" y="-5" type="curve" smooth="yes"/>
      <point x="87" y="-5"/>
      <point x="30" y="15"/>
      <point x="30" y="70" type="curve" smooth="yes"/>
      <point x="30" y="240" type="line"/>
      <point x="154" y="240" type="line"/>
      <point x="154" y="51" type="line"/>
      <point x="162" y="49"/>
      <point x="177" y="48"/>
      <point x="187" y="48" type="curve" smooth="yes"/>
      <point x="197" y="48"/>
      <point x="212" y="49"/>
      <point x="220" y="51" type="curve"/>
      <point x="220" y="252" type="line"/>
      <point x="81" y="346" type="line" smooth="yes"/>
      <point x="49" y="368"/>
      <point x="30" y="386"/>
      <point x="30" y="421" type="curve" smooth="yes"/>
      <point x="30" y="630" type="line" smooth="yes"/>
      <point x="30" y="685"/>
      <point x="87" y="705"/>
      <point x="187" y="705" type="curve" smooth="yes"/>
      <point x="288" y="705"/>
      <point x="344" y="685"/>
      <point x="344" y="630" type="curve" smooth="yes"/>
      <point x="344" y="460" type="line"/>
      <point x="220" y="460" type="line"/>
      <point x="220" y="649" type="line"/>
      <point x="212" y="651"/>
      <point x="197" y="652"/>
      <point x="187" y="652" type="curve" smooth="yes"/>
      <point x="177" y="652"/>
      <point x="162" y="651"/>
      <point x="154" y="649" type="curve"/>
      <point x="154" y="448" type="line"/>
      <point x="296" y="352" type="line" smooth="yes"/>
      <point x="326" y="332"/>
      <point x="344" y="313"/>
      <point x="344" y="278" type="curve" smooth="yes"/>
    </contour>
    <contour>
      <point x="289" y="501" type="line"/>
      <point x="289" y="652" type="line"/>
      <point x="275" y="652" type="line"/>
      <point x="275" y="501" type="line"/>
    </contour>
    <contour>
      <point x="289" y="48" type="line"/>
      <point x="289" y="277" type="line" smooth="yes"/>
      <point x="289" y="284"/>
      <point x="285" y="289"/>
      <point x="281" y="292" type="curve" smooth="yes"/>
      <point x="99" y="420" type="line"/>
      <point x="99" y="652" type="line"/>
      <point x="85" y="652" type="line"/>
      <point x="85" y="423" type="line" smooth="yes"/>
      <point x="85" y="416"/>
      <point x="88" y="411"/>
      <point x="94" y="407" type="curve" smooth="yes"/>
      <point x="275" y="280" type="line"/>
      <point x="275" y="48" type="line"/>
    </contour>
    <contour>
      <point x="99" y="48" type="line"/>
      <point x="99" y="199" type="line"/>
      <point x="85" y="199" type="line"/>
      <point x="85" y="48" type="line"/>
    </contour>
  </outline>
</glyph>
<glyph name="W" format="1">
  <advance width="535"/>
  <unicode hex="0057"/>
  <outline>
    <contour>
      <point x="530" y="652" type="line"/>
      <point x="498" y="652" type="line"/>
      <point x="426" y="0" type="line"/>
      <point x="300" y="0" type="line"/>
      <point x="264" y="322" type="line"/>
      <point x="235" y="0" type="line"/>
      <point x="109" y="0" type="line"/>
      <point x="37" y="652" type="line"/>
      <point x="5" y="652" type="line"/>
      <point x="5" y="700" type="line"/>
      <point x="159" y="700" type="line"/>
      <point x="204" y="209" type="line"/>
      <point x="240" y="545" type="line"/>
      <point x="228" y="652" type="line"/>
      <point x="201" y="652" type="line"/>
      <point x="201" y="700" type="line"/>
      <point x="350" y="700" type="line"/>
      <point x="395" y="209" type="line"/>
      <point x="433" y="652" type="line"/>
      <point x="402" y="652" type="line"/>
      <point x="402" y="700" type="line"/>
      <point x="530" y="700" type="line"/>
    </contour>
    <contour>
      <point x="361" y="45" type="line"/>
      <point x="297" y="655" type="line"/>
      <point x="282" y="655" type="line"/>
      <point x="346" y="45" type="line"/>
    </contour>
    <contour>
      <point x="170" y="45" type="line"/>
      <point x="106" y="655" type="line"/>
      <point x="91" y="655" type="line"/>
      <point x="155" y="45" type="line"/>
    </contour>
  </outline>
</glyph>
<glyph name="Y" format="1">
  <advance width="374"/>
  <unicode hex="0059"/>
  <outline>
    <contour>
      <point x="369" y="652" type="line"/>
      <point x="337" y="652" type="line"/>
      <point x="249" y="274" type="line"/>
      <point x="249" y="48" type="line"/>
      <point x="279" y="48" type="line"/>
      <point x="279" y="0" type="line"/>
      <point x="95" y="0" type="line"/>
      <point x="95" y="48" type="line"/>
      <point x="125" y="48" type="line"/>
      <point x="125" y="269" type="line"/>
      <point x="37" y="652" type="line"/>
      <point x="5" y="652" type="line"/>
      <point x="5" y="700" type="line"/>
      <point x="159" y="700" type="line"/>
      <point x="221" y="403" type="line"/>
      <point x="272" y="652" type="line"/>
      <point x="236" y="652" type="line"/>
      <point x="236" y="700" type="line"/>
      <point x="369" y="700" type="line"/>
    </contour>
    <contour>
      <point x="194" y="45" type="line"/>
      <point x="194" y="278" type="line"/>
      <point x="109" y="655" type="line"/>
      <point x="94" y="655" type="line"/>
      <point x="180" y="274" type="line"/>
      <point x="180" y="45" type="line"/>
    </contour>
  </outline>
</glyph>
<glyph name="Z" format="1">
  <advance width="362"/>
  <unicode hex="005A"/>
  <outline>
    <contour>
      <point x="343" y="0" type="line"/>
      <point x="17" y="0" type="line"/>
      <point x="17" y="48" type="line"/>
      <point x="217" y="652" type="line"/>
      <point x="137" y="652" type="line"/>
      <point x="137" y="460" type="line"/>
      <point x="23" y="460" type="line"/>
      <point x="23" y="700" type="line"/>
      <point x="343" y="700" type="line"/>
      <point x="343" y="652" type="line"/>
      <point x="143" y="48" type="line"/>
      <point x="229" y="48" type="line"/>
      <point x="229" y="240" type="line"/>
      <point x="343" y="240" type="line"/>
    </contour>
    <contour>
      <point x="87" y="501" type="line"/>
      <point x="87" y="655" type="line"/>
      <point x="73" y="655" type="line"/>
      <point x="73" y="501" type="line"/>
    </contour>
    <contour>
      <point x="291" y="655" type="line"/>
      <point x="276" y="655" type="line"/>
      <point x="69" y="45" type="line"/>
      <point x="84" y="45" type="line"/>
    </contour>
    <contour>
      <point x="293" y="45" type="line"/>
      <point x="293" y="199" type="line"/>
      <point x="279" y="199" type="line"/>
      <point x="279" y="45" type="line"/>
    </contour>
  </outline>
</glyph>
<glyph name="bracketleft" format="1">
  <advance width="220"/>
  <unicode hex="005B"/>
  <outline>
    <contour>
      <point x="205" y="0" type="line"/>
      <point x="35" y="0" type="line"/>
      <point x="35" y="700" type="line"/>
      <point x="205" y="700" type="line"/>
      <point x="205" y="652" type="line"/>
      <point x="155" y="652" type="line"/>
      <point x="155" y="48" type="line"/>
      <point x="205" y="48" type="line"/>
    </contour>
    <contour>
      <point x="102" y="45" type="line"/>
      <point x="102" y="655" type="line"/>
      <point x="88" y="655" type="line"/>
      <point x="88" y="45" type="line"/>
    </contour>
  </outline>
</glyph>
<glyph name="backslash" format="1">
  <advance width="204"/>
  <unicode hex="005C"/>
  <outline>
    <contour>
      <point x="189" y="0" type="line"/>
      <point x="136" y="0" type="line"/>
      <point x="15" y="700" type="line"/>
      <point x="68" y="700" type="line"/>
    </contour>
  </outline>
</glyph>
<glyph name="bracketright" format="1">
  <advance width="220"/>
  <unicode hex="005D"/>
  <outline>
    <contour>
      <point x="185" y="0" type="line"/>
      <point x="15" y="0" type="line"/>
      <point x="15" y="48" type="line"/>
      <point x="65" y="48" type="line"/>
      <point x="65" y="652" type="line"/>
      <point x="15" y="652" type="line"/>
      <point x="15" y="700" type="line"/>
      <point x="185" y="700" type="line"/>
    </contour>
    <contour>
      <point x="132" y="45" type="line"/>
      <point x="132" y="655" type="line"/>
      <point x="118" y="655" type="line"/>
      <point x="118" y="45" type="line"/>
    </contour>
  </outline>
</glyph>
<glyph name="asciicircum" format="1">
  <advance width="340"/>
  <unicode hex="005E"/>
  <outline>
    <contour>
      <point x="320" y="501" type="line"/>
      <point x="219" y="501" type="line"/>
      <point x="170" y="585" type="line"/>
      <point x="121" y="501" type="line"/>
      <point x="20" y="501" type="line"/>
      <point x="20" y="527" type="line"/>
      <point x="134" y="700" type="line"/>
      <point x="206" y="700" type="line"/>
      <point x="320" y="527" type="line"/>
    </contour>
    <contour>
      <point x="269" y="530" type="line"/>
      <point x="177" y="671" type="line"/>
      <point x="163" y="671" type="line"/>
      <point x="71" y="530" type="line"/>
      <point x="88" y="530" type="line"/>
      <point x="170" y="657" type="line"/>
      <point x="252" y="530" type="line"/>
    </contour>
  </outline>
</glyph>
<glyph name="grave" format="1">
  <advance width="300"/>
  <unicode hex="0060"/>
  <outline>
    <contour>
      <point x="238" y="491" type="line"/>
      <point x="132" y="491" type="line"/>
      <point x="62" y="622" type="line"/>
      <point x="168" y="622" type="line"/>
    </contour>
    <contour>
      <point x="176" y="521" type="line"/>
      <point x="138" y="592" type="line"/>
      <point x="124" y="592" type="line"/>
      <point x="162" y="521" type="line"/>
    </contour>
  </outline>
</glyph>
<glyph name="d" format="1">
  <advance width="365"/>
  <unicode hex="0064"/>
  <outline>
    <contour>
      <point x="358" y="0" type="line"/>
      <point x="208" y="0" type="line"/>
      <point x="208" y="31" type="line"/>
      <point x="172" y="10"/>
      <point x="134" y="-5"/>
      <point x="98" y="-5" type="curve" smooth="yes"/>
      <point x="56" y="-5"/>
      <point x="28" y="8"/>
      <point x="28" y="51" type="curve" smooth="yes"/>
      <point x="28" y="409" type="line" smooth="yes"/>
      <point x="28" y="452"/>
      <point x="56" y="465"/>
      <point x="98" y="465" type="curve" smooth="yes"/>
      <point x="134" y="465"/>
      <point x="172" y="450"/>
      <point x="208" y="429" type="curve"/>
      <point x="208" y="652" type="line"/>
      <point x="178" y="652" type="line"/>
      <point x="178" y="700" type="line"/>
      <point x="328" y="700" type="line"/>
      <point x="328" y="48" type="line"/>
      <point x="358" y="48" type="line"/>
    </contour>
    <contour>
      <point x="275" y="45" type="line"/>
      <point x="275" y="655" type="line"/>
      <point x="261" y="655" type="line"/>
      <point x="261" y="45" type="line"/>
    </contour>
    <contour>
      <point x="208" y="78" type="curve"/>
      <point x="208" y="382" type="line"/>
      <point x="189" y="391"/>
      <point x="165" y="396"/>
      <point x="148" y="398" type="curve"/>
      <point x="148" y="62" type="line"/>
      <point x="165" y="64"/>
      <point x="189" y="69"/>
    </contour>
    <contour>
      <point x="95" y="45" type="line"/>
      <point x="95" y="415" type="line"/>
      <point x="81" y="415" type="line"/>
      <point x="81" y="45" type="line"/>
    </contour>
  </outline>
</glyph>
<glyph name="f" format="1">
  <advance width="213"/>
  <unicode hex="0066"/>
  <outline>
    <contour>
      <point x="216" y="652" type="line"/>
      <point x="166" y="652" type="line"/>
      <point x="166" y="460" type="line"/>
      <point x="196" y="460" type="line"/>
      <point x="196" y="412" type="line"/>
      <point x="166" y="412" type="line"/>
      <point x="166" y="48" type="line"/>
      <point x="196" y="48" type="line"/>
      <point x="196" y="0" type="line"/>
      <point x="16" y="0" type="line"/>
      <point x="16" y="48" type="line"/>
      <point x="46" y="48" type="line"/>
      <point x="46" y="412" type="line"/>
      <point x="16" y="412" type="line"/>
      <point x="16" y="460" type="line"/>
      <point x="46" y="460" type="line"/>
      <point x="46" y="644" type="line" smooth="yes"/>
      <point x="46" y="687"/>
      <point x="74" y="700"/>
      <point x="116" y="700" type="curve" smooth="yes"/>
      <point x="216" y="700" type="line"/>
    </contour>
    <contour>
      <point x="113" y="45" type="line"/>
      <point x="113" y="655" type="line"/>
      <point x="99" y="655" type="line"/>
      <point x="99" y="45" type="line"/>
    </contour>
  </outline>
</glyph>
<glyph name="h" format="1">
  <advance width="385"/>
  <unicode hex="0068"/>
  <outline>
    <contour>
      <point x="375" y="0" type="line"/>
      <point x="225" y="0" type="line"/>
      <point x="225" y="398" type="line"/>
      <point x="208" y="396"/>
      <point x="184" y="391"/>
      <point x="165" y="382" type="curve"/>
      <point x="165" y="48" type="line"/>
      <point x="195" y="48" type="line"/>
      <point x="195" y="0" type="line"/>
      <point x="15" y="0" type="line"/>
      <point x="15" y="48" type="line"/>
      <point x="45" y="48" type="line"/>
      <point x="45" y="652" type="line"/>
      <point x="15" y="652" type="line"/>
      <point x="15" y="700" type="line"/>
      <point x="165" y="700" type="line"/>
      <point x="165" y="429" type="line"/>
      <point x="201" y="450"/>
      <point x="239" y="465"/>
      <point x="275" y="465" type="curve" smooth="yes"/>
      <point x="317" y="465"/>
      <point x="345" y="452"/>
      <point x="345" y="409" type="curve" smooth="yes"/>
      <point x="345" y="48" type="line"/>
      <point x="375" y="48" type="line"/>
    </contour>
    <contour>
      <point x="112" y="45" type="line"/>
      <point x="112" y="655" type="line"/>
      <point x="98" y="655" type="line"/>
      <point x="98" y="45" type="line"/>
    </contour>
    <contour>
      <point x="292" y="45" type="line"/>
      <point x="292" y="415" type="line"/>
      <point x="278" y="415" type="line"/>
      <point x="278" y="45" type="line"/>
    </contour>
  </outline>
</glyph>
<glyph name="i" format="1">
  <advance width="210"/>
  <unicode hex="0069"/>
  <outline>
    <contour>
      <point x="170" y="525" type="line"/>
      <point x="50" y="525" type="line"/>
      <point x="50" y="652" type="line"/>
      <point x="170" y="652" type="line"/>
    </contour>
    <contour>
      <point x="200" y="0" type="line"/>
      <point x="20" y="0" type="line"/>
      <point x="20" y="48" type="line"/>
      <point x="50" y="48" type="line"/>
      <point x="50" y="412" type="line"/>
      <point x="20" y="412" type="line"/>
      <point x="20" y="460" type="line"/>
      <point x="170" y="460" type="line"/>
      <point x="170" y="48" type="line"/>
      <point x="200" y="48" type="line"/>
    </contour>
    <contour>
      <point x="117" y="562" type="line"/>
      <point x="117" y="615" type="line"/>
      <point x="103" y="615" type="line"/>
      <point x="103" y="562" type="line"/>
    </contour>
    <contour>
      <point x="117" y="45" type="line"/>
      <point x="117" y="415" type="line"/>
      <point x="103" y="415" type="line"/>
      <point x="103" y="45" type="line"/>
    </contour>
  </outline>
</glyph>
<glyph name="k" format="1">
  <advance width="376"/>
  <unicode hex="006B"/>
  <outline>
    <contour>
      <point x="375" y="0" type="line"/>
      <point x="240" y="0" type="line"/>
      <point x="165" y="207" type="line"/>
      <point x="165" y="48" type="line"/>
      <point x="195" y="48" type="line"/>
      <point x="195" y="0" type="line"/>
      <point x="15" y="0" type="line"/>
      <point x="15" y="48" type="line"/>
      <point x="45" y="48" type="line"/>
      <point x="45" y="652" type="line"/>
      <point x="15" y="652" type="line"/>
      <point x="15" y="700" type="line"/>
      <point x="165" y="700" type="line"/>
      <point x="165" y="275" type="line"/>
      <point x="262" y="412" type="line"/>
      <point x="234" y="412" type="line"/>
      <point x="234" y="460" type="line"/>
      <point x="360" y="460" type="line"/>
      <point x="360" y="412" type="line"/>
      <point x="330" y="412" type="line"/>
      <point x="251" y="302" type="line"/>
      <point x="345" y="48" type="line"/>
      <point x="375" y="48" type="line"/>
    </contour>
    <contour>
      <point x="112" y="45" type="line"/>
      <point x="112" y="655" type="line"/>
      <point x="98" y="655" type="line"/>
      <point x="98" y="45" type="line"/>
    </contour>
    <contour>
      <point x="293" y="45" type="line"/>
      <point x="215" y="260" type="line"/>
      <point x="205" y="245" type="line"/>
      <point x="278" y="45" type="line"/>
    </contour>
  </outline>
</glyph>
<glyph name="l" format="1">
  <advance width="205"/>
  <unicode hex="006C"/>
  <outline>
    <contour>
      <point x="195" y="0" type="line"/>
      <point x="15" y="0" type="line"/>
      <point x="15" y="48" type="line"/>
      <point x="45" y="48" type="line"/>
      <point x="45" y="652" type="line"/>
      <point x="15" y="652" type="line"/>
      <point x="15" y="700" type="line"/>
      <point x="165" y="700" type="line"/>
      <point x="165" y="48" type="line"/>
      <point x="195" y="48" type="line"/>
    </contour>
    <contour>
      <point x="112" y="45" type="line"/>
      <point x="112" y="655" type="line"/>
      <point x="98" y="655" type="line"/>
      <point x="98" y="45" type="line"/>
    </contour>
  </outline>
</glyph>
<glyph name="m" format="1">
  <advance width="570"/>
  <unicode hex="006D"/>
  <outline>
    <contour>
      <point x="560" y="0" type="line"/>
      <point x="410" y="0" type="line"/>
      <point x="410" y="398" type="line"/>
      <point x="393" y="396"/>
      <point x="369" y="391"/>
      <point x="350" y="382" type="curve"/>
      <point x="350" y="48" type="line"/>
      <point x="380" y="48" type="line"/>
      <point x="380" y="0" type="line"/>
      <point x="230" y="0" type="line"/>
      <point x="230" y="398" type="line"/>
      <point x="213" y="396"/>
      <point x="189" y="391"/>
      <point x="170" y="382" type="curve"/>
      <point x="170" y="48" type="line"/>
      <point x="200" y="48" type="line"/>
      <point x="200" y="0" type="line"/>
      <point x="20" y="0" type="line"/>
      <point x="20" y="48" type="line"/>
      <point x="50" y="48" type="line"/>
      <point x="50" y="412" type="line"/>
      <point x="20" y="412" type="line"/>
      <point x="20" y="460" type="line"/>
      <point x="170" y="460" type="line"/>
      <point x="170" y="429" type="line"/>
      <point x="206" y="450"/>
      <point x="244" y="465"/>
      <point x="280" y="465" type="curve" smooth="yes"/>
      <point x="320" y="465"/>
      <point x="341" y="453"/>
      <point x="348" y="428" type="curve"/>
      <point x="385" y="450"/>
      <point x="424" y="465"/>
      <point x="460" y="465" type="curve" smooth="yes"/>
      <point x="502" y="465"/>
      <point x="530" y="452"/>
      <point x="530" y="409" type="curve" smooth="yes"/>
      <point x="530" y="48" type="line"/>
      <point x="560" y="48" type="line"/>
    </contour>
    <contour>
      <point x="477" y="45" type="line"/>
      <point x="477" y="415" type="line"/>
      <point x="463" y="415" type="line"/>
      <point x="463" y="45" type="line"/>
    </contour>
    <contour>
      <point x="297" y="45" type="line"/>
      <point x="297" y="415" type="line"/>
      <point x="283" y="415" type="line"/>
      <point x="283" y="45" type="line"/>
    </contour>
    <contour>
      <point x="117" y="45" type="line"/>
      <point x="117" y="415" type="line"/>
      <point x="103" y="415" type="line"/>
      <point x="103" y="45" type="line"/>
    </contour>
  </outline>
</glyph>
<glyph name="n" format="1">
  <advance width="387"/>
  <unicode hex="006E"/>
  <outline>
    <contour>
      <point x="380" y="0" type="line"/>
      <point x="230" y="0" type="line"/>
      <point x="230" y="398" type="line"/>
      <point x="213" y="396"/>
      <point x="189" y="391"/>
      <point x="170" y="382" type="curve"/>
      <point x="170" y="48" type="line"/>
      <point x="200" y="48" type="line"/>
      <point x="200" y="0" type="line"/>
      <point x="20" y="0" type="line"/>
      <point x="20" y="48" type="line"/>
      <point x="50" y="48" type="line"/>
      <point x="50" y="412" type="line"/>
      <point x="20" y="412" type="line"/>
      <point x="20" y="460" type="line"/>
      <point x="170" y="460" type="line"/>
      <point x="170" y="429" type="line"/>
      <point x="206" y="450"/>
      <point x="244" y="465"/>
      <point x="280" y="465" type="curve" smooth="yes"/>
      <point x="322" y="465"/>
      <point x="350" y="452"/>
      <point x="350" y="409" type="curve" smooth="yes"/>
      <point x="350" y="48" type="line"/>
      <point x="380" y="48" type="line"/>
    </contour>
    <contour>
      <point x="297" y="45" type="line"/>
      <point x="297" y="415" type="line"/>
      <point x="283" y="415" type="line"/>
      <point x="283" y="45" type="line"/>
    </contour>
    <contour>
      <point x="117" y="45" type="line"/>
      <point x="117" y="415" type="line"/>
      <point x="103" y="415" type="line"/>
      <point x="103" y="45" type="line"/>
    </contour>
  </outline>
</glyph>
<glyph name="o" format="1">
  <advance width="356"/>
  <unicode hex="006F"/>
  <outline>
    <contour>
      <point x="331" y="70" type="line" smooth="yes"/>
      <point x="331" y="15"/>
      <point x="279" y="-5"/>
      <point x="178" y="-5" type="curve" smooth="yes"/>
      <point x="78" y="-5"/>
      <point x="25" y="15"/>
      <point x="25" y="70" type="curve" smooth="yes"/>
      <point x="25" y="390" type="line" smooth="yes"/>
      <point x="25" y="445"/>
      <point x="78" y="465"/>
      <point x="178" y="465" type="curve" smooth="yes"/>
      <point x="279" y="465"/>
      <point x="331" y="445"/>
      <point x="331" y="390" type="curve" smooth="yes"/>
    </contour>
    <contour>
      <point x="278" y="48" type="line"/>
      <point x="278" y="412" type="line"/>
      <point x="264" y="412" type="line"/>
      <point x="264" y="48" type="line"/>
    </contour>
    <contour>
      <point x="211" y="51" type="curve"/>
      <point x="211" y="409" type="line"/>
      <point x="203" y="411"/>
      <point x="188" y="412"/>
      <point x="178" y="412" type="curve" smooth="yes"/>
      <point x="168" y="412"/>
      <point x="153" y="411"/>
      <point x="145" y="409" type="curve"/>
      <point x="145" y="51" type="line"/>
      <point x="153" y="49"/>
      <point x="168" y="48"/>
      <point x="178" y="48" type="curve" smooth="yes"/>
      <point x="188" y="48"/>
      <point x="203" y="49"/>
    </contour>
    <contour>
      <point x="92" y="48" type="line"/>
      <point x="92" y="412" type="line"/>
      <point x="78" y="412" type="line"/>
      <point x="78" y="48" type="line"/>
    </contour>
  </outline>
</glyph>
<glyph name="p" format="1">
  <advance width="365"/>
  <unicode hex="0070"/>
  <outline>
    <contour>
      <point x="337" y="51" type="line" smooth="yes"/>
      <point x="337" y="8"/>
      <point x="309" y="-5"/>
      <point x="267" y="-5" type="curve" smooth="yes"/>
      <point x="231" y="-5"/>
      <point x="193" y="10"/>
      <point x="157" y="31" type="curve"/>
      <point x="157" y="-52" type="line"/>
      <point x="187" y="-52" type="line"/>
      <point x="187" y="-100" type="line"/>
      <point x="7" y="-100" type="line"/>
      <point x="7" y="-52" type="line"/>
      <point x="37" y="-52" type="line"/>
      <point x="37" y="412" type="line"/>
      <point x="7" y="412" type="line"/>
      <point x="7" y="460" type="line"/>
      <point x="157" y="460" type="line"/>
      <point x="157" y="429" type="line"/>
      <point x="193" y="450"/>
      <point x="231" y="465"/>
      <point x="267" y="465" type="curve" smooth="yes"/>
      <point x="309" y="465"/>
      <point x="337" y="452"/>
      <point x="337" y="409" type="curve" smooth="yes"/>
    </contour>
    <contour>
      <point x="284" y="45" type="line"/>
      <point x="284" y="415" type="line"/>
      <point x="270" y="415" type="line"/>
      <point x="270" y="45" type="line"/>
    </contour>
    <contour>
      <point x="217" y="62" type="curve"/>
      <point x="217" y="398" type="line"/>
      <point x="200" y="396"/>
      <point x="176" y="391"/>
      <point x="157" y="382" type="curve"/>
      <point x="157" y="78" type="line"/>
      <point x="176" y="69"/>
      <point x="200" y="64"/>
    </contour>
    <contour>
      <point x="104" y="-55" type="line"/>
      <point x="104" y="415" type="line"/>
      <point x="90" y="415" type="line"/>
      <point x="90" y="-55" type="line"/>
    </contour>
  </outline>
</glyph>
<glyph name="r" format="1">
  <advance width="347"/>
  <unicode hex="0072"/>
  <outline>
    <contour>
      <point x="334" y="295" type="line"/>
      <point x="214" y="295" type="line"/>
      <point x="214" y="399" type="line"/>
      <point x="198" y="396"/>
      <point x="186" y="392"/>
      <point x="170" y="382" type="curve"/>
      <point x="170" y="48" type="line"/>
      <point x="200" y="48" type="line"/>
      <point x="200" y="0" type="line"/>
      <point x="20" y="0" type="line"/>
      <point x="20" y="48" type="line"/>
      <point x="50" y="48" type="line"/>
      <point x="50" y="412" type="line"/>
      <point x="20" y="412" type="line"/>
      <point x="20" y="460" type="line"/>
      <point x="170" y="460" type="line"/>
      <point x="170" y="429" type="line"/>
      <point x="208" y="453"/>
      <point x="233" y="465"/>
      <point x="264" y="465" type="curve" smooth="yes"/>
      <point x="306" y="465"/>
      <point x="334" y="452"/>
      <point x="334" y="409" type="curve" smooth="yes"/>
    </contour>
    <contour>
      <point x="281" y="333" type="line"/>
      <point x="281" y="415" type="line"/>
      <point x="267" y="415" type="line"/>
      <point x="267" y="333" type="line"/>
    </contour>
    <contour>
      <point x="117" y="45" type="line"/>
      <point x="117" y="415" type="line"/>
      <point x="103" y="415" type="line"/>
      <point x="103" y="45" type="line"/>
    </contour>
  </outline>
</glyph>
<glyph name="s" format="1">
  <advance width="346"/>
  <unicode hex="0073"/>
  <outline>
    <contour>
      <point x="321" y="70" type="line" smooth="yes"/>
      <point x="321" y="15"/>
      <point x="274" y="-5"/>
      <point x="173" y="-5" type="curve" smooth="yes"/>
      <point x="73" y="-5"/>
      <point x="25" y="15"/>
      <point x="25" y="70" type="curve" smooth="yes"/>
      <point x="25" y="165" type="line"/>
      <point x="145" y="165" type="line"/>
      <point x="145" y="51" type="line"/>
      <point x="153" y="49"/>
      <point x="163" y="48"/>
      <point x="173" y="48" type="curve" smooth="yes"/>
      <point x="183" y="48"/>
      <point x="193" y="49"/>
      <point x="201" y="51" type="curve"/>
      <point x="201" y="152" type="line"/>
      <point x="74" y="229" type="line" smooth="yes"/>
      <point x="44" y="247"/>
      <point x="25" y="264"/>
      <point x="25" y="299" type="curve" smooth="yes"/>
      <point x="25" y="390" type="line" smooth="yes"/>
      <point x="25" y="445"/>
      <point x="73" y="465"/>
      <point x="173" y="465" type="curve" smooth="yes"/>
      <point x="274" y="465"/>
      <point x="321" y="445"/>
      <point x="321" y="390" type="curve" smooth="yes"/>
      <point x="321" y="295" type="line"/>
      <point x="201" y="295" type="line"/>
      <point x="201" y="409" type="line"/>
      <point x="193" y="411"/>
      <point x="183" y="412"/>
      <point x="173" y="412" type="curve" smooth="yes"/>
      <point x="163" y="412"/>
      <point x="153" y="411"/>
      <point x="145" y="409" type="curve"/>
      <point x="145" y="306" type="line"/>
      <point x="272" y="232" type="line" smooth="yes"/>
      <point x="302" y="214"/>
      <point x="321" y="197"/>
      <point x="321" y="162" type="curve" smooth="yes"/>
    </contour>
    <contour>
      <point x="268" y="333" type="line"/>
      <point x="268" y="412" type="line"/>
      <point x="254" y="412" type="line"/>
      <point x="254" y="333" type="line"/>
    </contour>
    <contour>
      <point x="268" y="48" type="line"/>
      <point x="268" y="170" type="line" smooth="yes"/>
      <point x="268" y="177"/>
      <point x="265" y="180"/>
      <point x="261" y="183" type="curve" smooth="yes"/>
      <point x="92" y="289" type="line"/>
      <point x="92" y="412" type="line"/>
      <point x="78" y="412" type="line"/>
      <point x="78" y="291" type="line" smooth="yes"/>
      <point x="78" y="284"/>
      <point x="82" y="281"/>
      <point x="86" y="278" type="curve" smooth="yes"/>
      <point x="254" y="173" type="line"/>
      <point x="254" y="48" type="line"/>
    </contour>
    <contour>
      <point x="91" y="48" type="line"/>
      <point x="91" y="127" type="line"/>
      <point x="77" y="127" type="line"/>
      <point x="77" y="48" type="line"/>
    </contour>
  </outline>
</glyph>
<glyph name="t" format="1">
  <advance width="218"/>
  <unicode hex="0074"/>
  <outline>
    <contour>
      <point x="205" y="0" type="line"/>
      <point x="110" y="0" type="line" smooth="yes"/>
      <point x="68" y="0"/>
      <point x="40" y="13"/>
      <point x="40" y="56" type="curve" smooth="yes"/>
      <point x="40" y="412" type="line"/>
      <point x="10" y="412" type="line"/>
      <point x="10" y="460" type="line"/>
      <point x="40" y="460" type="line"/>
      <point x="40" y="592" type="line"/>
      <point x="160" y="592" type="line"/>
      <point x="160" y="460" type="line"/>
      <point x="205" y="460" type="line"/>
      <point x="205" y="412" type="line"/>
      <point x="160" y="412" type="line"/>
      <point x="160" y="48" type="line"/>
      <point x="205" y="48" type="line"/>
    </contour>
    <contour>
      <point x="107" y="45" type="line"/>
      <point x="107" y="552" type="line"/>
      <point x="93" y="552" type="line"/>
      <point x="93" y="45" type="line"/>
    </contour>
  </outline>
</glyph>
<glyph name="v" format="1">
  <advance width="330"/>
  <unicode hex="0076"/>
  <outline>
    <contour>
      <point x="325" y="412" type="line"/>
      <point x="293" y="412" type="line"/>
      <point x="225" y="0" type="line"/>
      <point x="105" y="0" type="line"/>
      <point x="37" y="412" type="line"/>
      <point x="5" y="412" type="line"/>
      <point x="5" y="460" type="line"/>
      <point x="140" y="460" type="line"/>
      <point x="193" y="111" type="line"/>
      <point x="233" y="412" type="line"/>
      <point x="200" y="412" type="line"/>
      <point x="200" y="460" type="line"/>
      <point x="325" y="460" type="line"/>
    </contour>
    <contour>
      <point x="159" y="45" type="line"/>
      <point x="97" y="415" type="line"/>
      <point x="84" y="415" type="line"/>
      <point x="146" y="45" type="line"/>
    </contour>
  </outline>
</glyph>
<glyph name="x" format="1">
  <advance width="334"/>
  <unicode hex="0078"/>
  <outline>
    <contour>
      <point x="327" y="0" type="line"/>
      <point x="180" y="0" type="line"/>
      <point x="138" y="133" type="line"/>
      <point x="100" y="48" type="line"/>
      <point x="133" y="48" type="line"/>
      <point x="133" y="0" type="line"/>
      <point x="7" y="0" type="line"/>
      <point x="7" y="48" type="line"/>
      <point x="37" y="48" type="line"/>
      <point x="113" y="205" type="line"/>
      <point x="40" y="412" type="line"/>
      <point x="10" y="412" type="line"/>
      <point x="10" y="460" type="line"/>
      <point x="157" y="460" type="line"/>
      <point x="195" y="336" type="line"/>
      <point x="231" y="412" type="line"/>
      <point x="200" y="412" type="line"/>
      <point x="200" y="460" type="line"/>
      <point x="324" y="460" type="line"/>
      <point x="324" y="412" type="line"/>
      <point x="294" y="412" type="line"/>
      <point x="221" y="262" type="line"/>
      <point x="297" y="48" type="line"/>
      <point x="327" y="48" type="line"/>
    </contour>
    <contour>
      <point x="240" y="45" type="line"/>
      <point x="111" y="415" type="line"/>
      <point x="96" y="415" type="line"/>
      <point x="225" y="45" type="line"/>
    </contour>
  </outline>
</glyph>
<glyph name="z" format="1">
  <advance width="339"/>
  <unicode hex="007A"/>
  <outline>
    <contour>
      <point x="322" y="0" type="line"/>
      <point x="17" y="0" type="line"/>
      <point x="17" y="48" type="line"/>
      <point x="192" y="412" type="line"/>
      <point x="123" y="412" type="line"/>
      <point x="123" y="295" type="line"/>
      <point x="22" y="295" type="line"/>
      <point x="22" y="460" type="line"/>
      <point x="322" y="460" type="line"/>
      <point x="322" y="412" type="line"/>
      <point x="147" y="48" type="line"/>
      <point x="221" y="48" type="line"/>
      <point x="221" y="165" type="line"/>
      <point x="322" y="165" type="line"/>
    </contour>
    <contour>
      <point x="80" y="333" type="line"/>
      <point x="80" y="415" type="line"/>
      <point x="66" y="415" type="line"/>
      <point x="66" y="333" type="line"/>
    </contour>
    <contour>
      <point x="267" y="415" type="line"/>
      <point x="252" y="415" type="line"/>
      <point x="70" y="45" type="line"/>
      <point x="85" y="45" type="line"/>
    </contour>
    <contour>
      <point x="278" y="45" type="line"/>
      <point x="278" y="127" type="line"/>
      <point x="264" y="127" type="line"/>
      <point x="264" y="45" type="line"/>
    </contour>
  </outline>
</glyph>
<glyph name="asciitilde" format="1">
  <advance width="300"/>
  <unicode hex="007E"/>
  <outline>
    <contour>
      <point x="267" y="335" type="line" smooth="yes"/>
      <point x="267" y="294"/>
      <point x="249" y="277"/>
      <point x="218" y="277" type="curve" smooth="yes"/>
      <point x="202" y="277"/>
      <point x="187" y="283"/>
      <point x="175" y="289" type="curve" smooth="yes"/>
      <point x="84" y="337" type="line"/>
      <point x="84" y="278" type="line"/>
      <point x="33" y="278" type="line"/>
      <point x="33" y="372" type="line" smooth="yes"/>
      <point x="33" y="413"/>
      <point x="51" y="430"/>
      <point x="82" y="430" type="curve" smooth="yes"/>
      <point x="98" y="430"/>
      <point x="113" y="424"/>
      <point x="125" y="418" type="curve" smooth="yes"/>
      <point x="216" y="370" type="line"/>
      <point x="216" y="429" type="line"/>
      <point x="267" y="429" type="line"/>
    </contour>
    <contour>
      <point x="216" y="312" type="line"/>
      <point x="216" y="325" type="line"/>
      <point x="84" y="395" type="line"/>
      <point x="84" y="382" type="line"/>
    </contour>
  </outline>
</glyph>
<glyph name="cent" format="1">
  <advance width="358"/>
  <unicode hex="00A2"/>
  <outline>
    <contour>
      <point x="329" y="150" type="line" smooth="yes"/>
      <point x="329" y="101"/>
      <point x="291" y="80"/>
      <point x="212" y="76" type="curve"/>
      <point x="212" y="0" type="line"/>
      <point x="146" y="0" type="line"/>
      <point x="146" y="76" type="line"/>
      <point x="68" y="80"/>
      <point x="29" y="101"/>
      <point x="29" y="150" type="curve" smooth="yes"/>
      <point x="29" y="550" type="line" smooth="yes"/>
      <point x="29" y="599"/>
      <point x="68" y="620"/>
      <point x="146" y="624" type="curve"/>
      <point x="146" y="700" type="line"/>
      <point x="212" y="700" type="line"/>
      <point x="212" y="624" type="line"/>
      <point x="291" y="620"/>
      <point x="329" y="599"/>
      <point x="329" y="550" type="curve" smooth="yes"/>
      <point x="329" y="455" type="line"/>
      <point x="207" y="455" type="line"/>
      <point x="207" y="569" type="line"/>
      <point x="199" y="571"/>
      <point x="189" y="572"/>
      <point x="179" y="572" type="curve" smooth="yes"/>
      <point x="169" y="572"/>
      <point x="159" y="571"/>
      <point x="151" y="569" type="curve"/>
      <point x="151" y="131" type="line"/>
      <point x="159" y="129"/>
      <point x="169" y="128"/>
      <point x="179" y="128" type="curve" smooth="yes"/>
      <point x="189" y="128"/>
      <point x="199" y="129"/>
      <point x="207" y="131" type="curve"/>
      <point x="207" y="245" type="line"/>
      <point x="329" y="245" type="line"/>
    </contour>
    <contour>
      <point x="275" y="493" type="line"/>
      <point x="275" y="572" type="line"/>
      <point x="261" y="572" type="line"/>
      <point x="261" y="493" type="line"/>
    </contour>
    <contour>
      <point x="97" y="128" type="line"/>
      <point x="97" y="572" type="line"/>
      <point x="83" y="572" type="line"/>
      <point x="83" y="128" type="line"/>
    </contour>
    <contour>
      <point x="275" y="128" type="line"/>
      <point x="275" y="207" type="line"/>
      <point x="261" y="207" type="line"/>
      <point x="261" y="128" type="line"/>
    </contour>
  </outline>
</glyph>
<glyph name="yen" format="1">
  <advance width="374"/>
  <unicode hex="00A5"/>
  <outline>
    <contour>
      <point x="369" y="652" type="line"/>
      <point x="337" y="652" type="line"/>
      <point x="248" y="276" type="line"/>
      <point x="328" y="276" type="line"/>
      <point x="328" y="228" type="line"/>
      <point x="248" y="228" type="line"/>
      <point x="248" y="198" type="line"/>
      <point x="328" y="198" type="line"/>
      <point x="328" y="150" type="line"/>
      <point x="248" y="150" type="line"/>
      <point x="248" y="48" type="line"/>
      <point x="279" y="48" type="line"/>
      <point x="279" y="0" type="line"/>
      <point x="95" y="0" type="line"/>
      <point x="95" y="48" type="line"/>
      <point x="126" y="48" type="line"/>
      <point x="126" y="150" type="line"/>
      <point x="46" y="150" type="line"/>
      <point x="46" y="198" type="line"/>
      <point x="126" y="198" type="line"/>
      <point x="126" y="228" type="line"/>
      <point x="46" y="228" type="line"/>
      <point x="46" y="276" type="line"/>
      <point x="126" y="276" type="line"/>
      <point x="37" y="652" type="line"/>
      <point x="5" y="652" type="line"/>
      <point x="5" y="700" type="line"/>
      <point x="159" y="700" type="line"/>
      <point x="221" y="403" type="line"/>
      <point x="272" y="652" type="line"/>
      <point x="236" y="652" type="line"/>
      <point x="236" y="700" type="line"/>
      <point x="369" y="700" type="line"/>
    </contour>
    <contour>
      <point x="194" y="45" type="line"/>
      <point x="194" y="278" type="line"/>
      <point x="109" y="655" type="line"/>
      <point x="94" y="655" type="line"/>
      <point x="180" y="274" type="line"/>
      <point x="180" y="45" type="line"/>
    </contour>
  </outline>
</glyph>
<glyph name="section" format="1">
  <advance width="374"/>
  <unicode hex="00A7"/>
  <outline>
    <contour>
      <point x="344" y="70" type="line" smooth="yes"/>
      <point x="344" y="15"/>
      <point x="288" y="-5"/>
      <point x="187" y="-5" type="curve" smooth="yes"/>
      <point x="87" y="-5"/>
      <point x="30" y="15"/>
      <point x="30" y="70" type="curve" smooth="yes"/>
      <point x="30" y="178" type="line"/>
      <point x="154" y="178" type="line"/>
      <point x="154" y="51" type="line"/>
      <point x="162" y="49"/>
      <point x="177" y="48"/>
      <point x="187" y="48" type="curve" smooth="yes"/>
      <point x="197" y="48"/>
      <point x="212" y="49"/>
      <point x="220" y="51" type="curve"/>
      <point x="220" y="176" type="line"/>
      <point x="78" y="272" type="line" smooth="yes"/>
      <point x="48" y="292"/>
      <point x="30" y="311"/>
      <point x="30" y="346" type="curve" smooth="yes"/>
      <point x="30" y="630" type="line" smooth="yes"/>
      <point x="30" y="685"/>
      <point x="87" y="705"/>
      <point x="187" y="705" type="curve" smooth="yes"/>
      <point x="288" y="705"/>
      <point x="344" y="685"/>
      <point x="344" y="630" type="curve" smooth="yes"/>
      <point x="344" y="522" type="line"/>
      <point x="220" y="522" type="line"/>
      <point x="220" y="649" type="line"/>
      <point x="212" y="651"/>
      <point x="197" y="652"/>
      <point x="187" y="652" type="curve" smooth="yes"/>
      <point x="177" y="652"/>
      <point x="162" y="651"/>
      <point x="154" y="649" type="curve"/>
      <point x="154" y="524" type="line"/>
      <point x="293" y="430" type="line" smooth="yes"/>
      <point x="325" y="408"/>
      <point x="344" y="390"/>
      <point x="344" y="355" type="curve" smooth="yes"/>
    </contour>
    <contour>
      <point x="289" y="563" type="line"/>
      <point x="289" y="652" type="line"/>
      <point x="275" y="652" type="line"/>
      <point x="275" y="563" type="line"/>
    </contour>
    <contour>
      <point x="99" y="320" type="line"/>
      <point x="99" y="652" type="line"/>
      <point x="85" y="652" type="line"/>
      <point x="85" y="320" type="line"/>
    </contour>
    <contour>
      <point x="220" y="249" type="line"/>
      <point x="220" y="402" type="line"/>
      <point x="154" y="451" type="line"/>
      <point x="154" y="298" type="line"/>
    </contour>
    <contour>
      <point x="289" y="48" type="line"/>
      <point x="289" y="380" type="line"/>
      <point x="275" y="380" type="line"/>
      <point x="275" y="48" type="line"/>
    </contour>
    <contour>
      <point x="99" y="48" type="line"/>
      <point x="99" y="137" type="line"/>
      <point x="85" y="137" type="line"/>
      <point x="85" y="48" type="line"/>
    </contour>
  </outline>
</glyph>
<glyph name="dieresis" format="1">
  <advance width="300"/>
  <unicode hex="00A8"/>
  <outline>
    <contour>
      <point x="267" y="491" type="line"/>
      <point x="167" y="491" type="line"/>
      <point x="167" y="622" type="line"/>
      <point x="267" y="622" type="line"/>
    </contour>
    <contour>
      <point x="133" y="491" type="line"/>
      <point x="33" y="491" type="line"/>
      <point x="33" y="622" type="line"/>
      <point x="133" y="622" type="line"/>
    </contour>
    <contour>
      <point x="224" y="524" type="line"/>
      <point x="224" y="589" type="line"/>
      <point x="210" y="589" type="line"/>
      <point x="210" y="524" type="line"/>
    </contour>
    <contour>
      <point x="90" y="524" type="line"/>
      <point x="90" y="589" type="line"/>
      <point x="76" y="589" type="line"/>
      <point x="76" y="524" type="line"/>
    </contour>
  </outline>
</glyph>
<glyph name="copyright" format="1">
  <advance width="465"/>
  <unicode hex="00A9"/>
  <outline>
    <contour>
      <point x="434" y="90" type="line" smooth="yes"/>
      <point x="434" y="7"/>
      <point x="338" y="-5"/>
      <point x="232" y="-5" type="curve" smooth="yes"/>
      <point x="125" y="-5"/>
      <point x="30" y="7"/>
      <point x="30" y="90" type="curve" smooth="yes"/>
      <point x="30" y="610" type="line" smooth="yes"/>
      <point x="30" y="693"/>
      <point x="126" y="705"/>
      <point x="232" y="705" type="curve" smooth="yes"/>
      <point x="339" y="705"/>
      <point x="434" y="693"/>
      <point x="434" y="610" type="curve" smooth="yes"/>
    </contour>
    <contour>
      <point x="398" y="90" type="curve" smooth="yes"/>
      <point x="398" y="610" type="line" smooth="yes"/>
      <point x="398" y="670"/>
      <point x="313" y="674"/>
      <point x="232" y="674" type="curve" smooth="yes"/>
      <point x="152" y="674"/>
      <point x="66" y="670"/>
      <point x="66" y="610" type="curve" smooth="yes"/>
      <point x="66" y="90" type="line" smooth="yes"/>
      <point x="66" y="30"/>
      <point x="151" y="26"/>
      <point x="232" y="26" type="curve" smooth="yes"/>
      <point x="312" y="26"/>
      <point x="398" y="30"/>
    </contour>
    <contour>
      <point x="341" y="135" type="line" smooth="yes"/>
      <point x="341" y="97"/>
      <point x="302" y="83"/>
      <point x="231" y="83" type="curve" smooth="yes"/>
      <point x="161" y="83"/>
      <point x="121" y="97"/>
      <point x="121" y="135" type="curve" smooth="yes"/>
      <point x="121" y="567" type="line" smooth="yes"/>
      <point x="121" y="605"/>
      <point x="161" y="619"/>
      <point x="231" y="619" type="curve" smooth="yes"/>
      <point x="302" y="619"/>
      <point x="341" y="605"/>
      <point x="341" y="567" type="curve" smooth="yes"/>
      <point x="341" y="438" type="line"/>
      <point x="254" y="438" type="line"/>
      <point x="254" y="580" type="line"/>
      <point x="249" y="582"/>
      <point x="238" y="582"/>
      <point x="231" y="582" type="curve" smooth="yes"/>
      <point x="224" y="582"/>
      <point x="214" y="582"/>
      <point x="208" y="580" type="curve"/>
      <point x="208" y="122" type="line"/>
      <point x="214" y="120"/>
      <point x="224" y="120"/>
      <point x="231" y="120" type="curve" smooth="yes"/>
      <point x="238" y="120"/>
      <point x="249" y="120"/>
      <point x="254" y="122" type="curve"/>
      <point x="254" y="264" type="line"/>
      <point x="341" y="264" type="line"/>
    </contour>
    <contour>
      <point x="302" y="467" type="line"/>
      <point x="302" y="582" type="line"/>
      <point x="293" y="582" type="line"/>
      <point x="293" y="467" type="line"/>
    </contour>
    <contour>
      <point x="170" y="120" type="line"/>
      <point x="170" y="582" type="line"/>
      <point x="160" y="582" type="line"/>
      <point x="160" y="120" type="line"/>
    </contour>
    <contour>
      <point x="302" y="120" type="line"/>
      <point x="302" y="235" type="line"/>
      <point x="293" y="235" type="line"/>
      <point x="293" y="120" type="line"/>
    </contour>
  </outline>
</glyph>
<glyph name="guillemotleft" format="1">
  <advance width="420"/>
  <unicode hex="00AB"/>
  <outline>
    <contour>
      <point x="405" y="0" type="line"/>
      <point x="269" y="0" type="line"/>
      <point x="190" y="230" type="line"/>
      <point x="269" y="460" type="line"/>
      <point x="405" y="460" type="line"/>
      <point x="323" y="230" type="line"/>
    </contour>
    <contour>
      <point x="225" y="0" type="line"/>
      <point x="89" y="0" type="line"/>
      <point x="10" y="230" type="line"/>
      <point x="89" y="460" type="line"/>
      <point x="225" y="460" type="line"/>
      <point x="143" y="230" type="line"/>
    </contour>
    <contour>
      <point x="331" y="48" type="line"/>
      <point x="266" y="230" type="line"/>
      <point x="331" y="412" type="line"/>
      <point x="313" y="412" type="line"/>
      <point x="248" y="230" type="line"/>
      <point x="313" y="48" type="line"/>
    </contour>
    <contour>
      <point x="151" y="48" type="line"/>
      <point x="86" y="230" type="line"/>
      <point x="151" y="412" type="line"/>
      <point x="133" y="412" type="line"/>
      <point x="68" y="230" type="line"/>
      <point x="133" y="48" type="line"/>
    </contour>
  </outline>
</glyph>
<glyph name="paragraph" format="1">
  <advance width="391"/>
  <unicode hex="00B6"/>
  <outline>
    <contour>
      <point x="371" y="0" type="line"/>
      <point x="187" y="0" type="line"/>
      <point x="187" y="48" type="line"/>
      <point x="217" y="48" type="line"/>
      <point x="217" y="284" type="line"/>
      <point x="183" y="284" type="line" smooth="yes"/>
      <point x="82" y="284"/>
      <point x="27" y="304"/>
      <point x="27" y="359" type="curve" smooth="yes"/>
      <point x="27" y="625" type="line" smooth="yes"/>
      <point x="27" y="680"/>
      <point x="82" y="700"/>
      <point x="183" y="700" type="curve" smooth="yes"/>
      <point x="371" y="700" type="line"/>
      <point x="371" y="652" type="line"/>
      <point x="341" y="652" type="line"/>
      <point x="341" y="48" type="line"/>
      <point x="371" y="48" type="line"/>
    </contour>
    <contour>
      <point x="217" y="332" type="line"/>
      <point x="217" y="652" type="line"/>
      <point x="184" y="652" type="line" smooth="yes"/>
      <point x="169" y="652"/>
      <point x="159" y="651"/>
      <point x="151" y="649" type="curve"/>
      <point x="151" y="335" type="line"/>
      <point x="159" y="333"/>
      <point x="169" y="332"/>
      <point x="184" y="332" type="curve" smooth="yes"/>
    </contour>
    <contour>
      <point x="96" y="332" type="line"/>
      <point x="96" y="652" type="line"/>
      <point x="82" y="652" type="line"/>
      <point x="82" y="332" type="line"/>
    </contour>
    <contour>
      <point x="286" y="45" type="line"/>
      <point x="286" y="655" type="line"/>
      <point x="272" y="655" type="line"/>
      <point x="272" y="45" type="line"/>
    </contour>
  </outline>
</glyph>
<glyph name="periodcentered" format="1">
  <advance width="190"/>
  <unicode hex="00B7"/>
  <unicode hex="2219"/>
  <outline>
    <contour>
      <point x="155" y="285" type="line"/>
      <point x="35" y="285" type="line"/>
      <point x="35" y="422" type="line"/>
      <point x="155" y="422" type="line"/>
    </contour>
    <contour>
      <point x="102" y="322" type="line"/>
      <point x="102" y="385" type="line"/>
      <point x="88" y="385" type="line"/>
      <point x="88" y="322" type="line"/>
    </contour>
  </outline>
</glyph>
<glyph name="guillemotright" format="1">
  <advance width="420"/>
  <unicode hex="00BB"/>
  <outline>
    <contour>
      <point x="410" y="230" type="line"/>
      <point x="331" y="0" type="line"/>
      <point x="195" y="0" type="line"/>
      <point x="277" y="230" type="line"/>
      <point x="195" y="460" type="line"/>
      <point x="331" y="460" type="line"/>
    </contour>
    <contour>
      <point x="230" y="230" type="line"/>
      <point x="151" y="0" type="line"/>
      <point x="15" y="0" type="line"/>
      <point x="97" y="230" type="line"/>
      <point x="15" y="460" type="line"/>
      <point x="151" y="460" type="line"/>
    </contour>
    <contour>
      <point x="352" y="230" type="line"/>
      <point x="287" y="412" type="line"/>
      <point x="269" y="412" type="line"/>
      <point x="334" y="230" type="line"/>
      <point x="269" y="48" type="line"/>
      <point x="287" y="48" type="line"/>
    </contour>
    <contour>
      <point x="172" y="230" type="line"/>
      <point x="107" y="412" type="line"/>
      <point x="89" y="412" type="line"/>
      <point x="154" y="230" type="line"/>
      <point x="89" y="48" type="line"/>
      <point x="107" y="48" type="line"/>
    </contour>
  </outline>
</glyph>
<glyph name="Aring" format="1">
  <advance width="368"/>
  <unicode hex="00C5"/>
  <outline>
    <contour>
      <point x="363" y="0" type="line"/>
      <point x="209" y="0" type="line"/>
      <point x="195" y="129" type="line"/>
      <point x="110" y="129" type="line"/>
      <point x="101" y="48" type="line"/>
      <point x="137" y="48" type="line"/>
      <point x="137" y="0" type="line"/>
      <point x="5" y="0" type="line"/>
      <point x="5" y="48" type="line"/>
      <point x="37" y="48" type="line"/>
      <point x="116" y="665" type="line"/>
      <point x="81" y="675"/>
      <point x="62" y="695"/>
      <point x="62" y="727" type="curve" smooth="yes"/>
      <point x="62" y="761" type="line" smooth="yes"/>
      <point x="62" y="810"/>
      <point x="107" y="831"/>
      <point x="183" y="831" type="curve" smooth="yes"/>
      <point x="260" y="831"/>
      <point x="304" y="810"/>
      <point x="304" y="761" type="curve" smooth="yes"/>
      <point x="304" y="727" type="line" smooth="yes"/>
      <point x="304" y="695"/>
      <point x="286" y="675"/>
      <point x="251" y="665" type="curve"/>
      <point x="331" y="48" type="line"/>
      <point x="363" y="48" type="line"/>
    </contour>
    <contour>
      <point x="262" y="705" type="line"/>
      <point x="262" y="783" type="line"/>
      <point x="248" y="783" type="line"/>
      <point x="248" y="705" type="line"/>
    </contour>
    <contour>
      <point x="209" y="700" type="curve"/>
      <point x="209" y="788" type="line"/>
      <point x="200" y="790"/>
      <point x="192" y="790"/>
      <point x="183" y="790" type="curve" smooth="yes"/>
      <point x="174" y="790"/>
      <point x="166" y="790"/>
      <point x="157" y="788" type="curve"/>
      <point x="157" y="700" type="line"/>
      <point x="166" y="698"/>
      <point x="174" y="698"/>
      <point x="183" y="698" type="curve" smooth="yes"/>
      <point x="192" y="698"/>
      <point x="200" y="698"/>
    </contour>
    <contour>
      <point x="118" y="705" type="line"/>
      <point x="118" y="783" type="line"/>
      <point x="104" y="783" type="line"/>
      <point x="104" y="705" type="line"/>
    </contour>
    <contour>
      <point x="277" y="45" type="line"/>
      <point x="202" y="652" type="line"/>
      <point x="187" y="652" type="line"/>
      <point x="262" y="45" type="line"/>
    </contour>
    <contour>
      <point x="189" y="177" type="line"/>
      <point x="152" y="519" type="line"/>
      <point x="115" y="177" type="line"/>
    </contour>
  </outline>
</glyph>
<glyph name="AE" format="1">
  <advance width="544"/>
  <unicode hex="00C6"/>
  <outline>
    <contour>
      <point x="510" y="0" type="line"/>
      <point x="202" y="0" type="line"/>
      <point x="202" y="129" type="line"/>
      <point x="110" y="129" type="line"/>
      <point x="96" y="48" type="line"/>
      <point x="132" y="48" type="line"/>
      <point x="132" y="0" type="line"/>
      <point x="0" y="0" type="line"/>
      <point x="0" y="48" type="line"/>
      <point x="32" y="48" type="line"/>
      <point x="141" y="652" type="line"/>
      <point x="104" y="652" type="line"/>
      <point x="104" y="700" type="line"/>
      <point x="510" y="700" type="line"/>
      <point x="510" y="460" type="line"/>
      <point x="386" y="460" type="line"/>
      <point x="386" y="652" type="line"/>
      <point x="326" y="652" type="line"/>
      <point x="326" y="377" type="line"/>
      <point x="436" y="377" type="line"/>
      <point x="436" y="329" type="line"/>
      <point x="326" y="329" type="line"/>
      <point x="326" y="48" type="line"/>
      <point x="386" y="48" type="line"/>
      <point x="386" y="240" type="line"/>
      <point x="510" y="240" type="line"/>
    </contour>
    <contour>
      <point x="455" y="501" type="line"/>
      <point x="455" y="655" type="line"/>
      <point x="441" y="655" type="line"/>
      <point x="441" y="501" type="line"/>
    </contour>
    <contour>
      <point x="202" y="177" type="line"/>
      <point x="202" y="657" type="line"/>
      <point x="119" y="177" type="line"/>
    </contour>
    <contour>
      <point x="271" y="45" type="line"/>
      <point x="271" y="655" type="line"/>
      <point x="257" y="655" type="line"/>
      <point x="257" y="45" type="line"/>
    </contour>
    <contour>
      <point x="455" y="45" type="line"/>
      <point x="455" y="199" type="line"/>
      <point x="441" y="199" type="line"/>
      <point x="441" y="45" type="line"/>
    </contour>
  </outline>
</glyph>
<glyph name="Ccedilla" format="1">
  <advance width="374"/>
  <unicode hex="00C7"/>
  <outline>
    <contour>
      <point x="344" y="70" type="line" smooth="yes"/>
      <point x="344" y="26"/>
      <point x="308" y="4"/>
      <point x="242" y="-3" type="curve"/>
      <point x="242" y="-44" type="line" smooth="yes"/>
      <point x="242" y="-87"/>
      <point x="214" y="-100"/>
      <point x="172" y="-100" type="curve" smooth="yes"/>
      <point x="97" y="-100" type="line"/>
      <point x="97" y="-52" type="line"/>
      <point x="132" y="-52" type="line"/>
      <point x="132" y="-3" type="line"/>
      <point x="66" y="4"/>
      <point x="30" y="26"/>
      <point x="30" y="70" type="curve" smooth="yes"/>
      <point x="30" y="630" type="line" smooth="yes"/>
      <point x="30" y="685"/>
      <point x="87" y="705"/>
      <point x="187" y="705" type="curve" smooth="yes"/>
      <point x="288" y="705"/>
      <point x="344" y="685"/>
      <point x="344" y="630" type="curve" smooth="yes"/>
      <point x="344" y="460" type="line"/>
      <point x="220" y="460" type="line"/>
      <point x="220" y="649" type="line"/>
      <point x="212" y="651"/>
      <point x="197" y="652"/>
      <point x="187" y="652" type="curve" smooth="yes"/>
      <point x="177" y="652"/>
      <point x="162" y="651"/>
      <point x="154" y="649" type="curve"/>
      <point x="154" y="51" type="line"/>
      <point x="162" y="49"/>
      <point x="177" y="48"/>
      <point x="187" y="48" type="curve" smooth="yes"/>
      <point x="197" y="48"/>
      <point x="212" y="49"/>
      <point x="220" y="51" type="curve"/>
      <point x="220" y="240" type="line"/>
      <point x="344" y="240" type="line"/>
    </contour>
    <contour>
      <point x="289" y="501" type="line"/>
      <point x="289" y="652" type="line"/>
      <point x="275" y="652" type="line"/>
      <point x="275" y="501" type="line"/>
    </contour>
    <contour>
      <point x="99" y="48" type="line"/>
      <point x="99" y="652" type="line"/>
      <point x="85" y="652" type="line"/>
      <point x="85" y="48" type="line"/>
    </contour>
    <contour>
      <point x="289" y="48" type="line"/>
      <point x="289" y="199" type="line"/>
      <point x="275" y="199" type="line"/>
      <point x="275" y="48" type="line"/>
    </contour>
    <contour>
      <point x="194" y="-57" type="line"/>
      <point x="194" y="3" type="line"/>
      <point x="180" y="3" type="line"/>
      <point x="180" y="-57" type="line"/>
    </contour>
  </outline>
</glyph>
<glyph name="Eth" format="1">
  <advance width="400"/>
  <unicode hex="00D0"/>
  <outline>
    <contour>
      <point x="370" y="75" type="line" smooth="yes"/>
      <point x="370" y="20"/>
      <point x="315" y="0"/>
      <point x="214" y="0" type="curve" smooth="yes"/>
      <point x="20" y="0" type="line"/>
      <point x="20" y="48" type="line"/>
      <point x="50" y="48" type="line"/>
      <point x="50" y="329" type="line"/>
      <point x="20" y="329" type="line"/>
      <point x="20" y="377" type="line"/>
      <point x="50" y="377" type="line"/>
      <point x="50" y="652" type="line"/>
      <point x="20" y="652" type="line"/>
      <point x="20" y="700" type="line"/>
      <point x="214" y="700" type="line" smooth="yes"/>
      <point x="315" y="700"/>
      <point x="370" y="680"/>
      <point x="370" y="625" type="curve" smooth="yes"/>
    </contour>
    <contour>
      <point x="315" y="48" type="line"/>
      <point x="315" y="652" type="line"/>
      <point x="301" y="652" type="line"/>
      <point x="301" y="48" type="line"/>
    </contour>
    <contour>
      <point x="246" y="51" type="curve"/>
      <point x="246" y="649" type="line"/>
      <point x="238" y="651"/>
      <point x="228" y="652"/>
      <point x="213" y="652" type="curve" smooth="yes"/>
      <point x="174" y="652" type="line"/>
      <point x="174" y="377" type="line"/>
      <point x="210" y="377" type="line"/>
      <point x="210" y="329" type="line"/>
      <point x="174" y="329" type="line"/>
      <point x="174" y="48" type="line"/>
      <point x="213" y="48" type="line" smooth="yes"/>
      <point x="228" y="48"/>
      <point x="238" y="49"/>
    </contour>
    <contour>
      <point x="119" y="45" type="line"/>
      <point x="119" y="655" type="line"/>
      <point x="105" y="655" type="line"/>
      <point x="105" y="45" type="line"/>
    </contour>
  </outline>
</glyph>
<glyph name="Thorn" format="1">
  <advance width="391"/>
  <unicode hex="00DE"/>
  <outline>
    <contour>
      <point x="364" y="234" type="line" smooth="yes"/>
      <point x="364" y="179"/>
      <point x="309" y="159"/>
      <point x="208" y="159" type="curve" smooth="yes"/>
      <point x="174" y="159" type="line"/>
      <point x="174" y="48" type="line"/>
      <point x="204" y="48" type="line"/>
      <point x="204" y="0" type="line"/>
      <point x="20" y="0" type="line"/>
      <point x="20" y="48" type="line"/>
      <point x="50" y="48" type="line"/>
      <point x="50" y="652" type="line"/>
      <point x="20" y="652" type="line"/>
      <point x="20" y="700" type="line"/>
      <point x="204" y="700" type="line"/>
      <point x="204" y="652" type="line"/>
      <point x="174" y="652" type="line"/>
      <point x="174" y="575" type="line"/>
      <point x="208" y="575" type="line" smooth="yes"/>
      <point x="309" y="575"/>
      <point x="364" y="555"/>
      <point x="364" y="500" type="curve" smooth="yes"/>
    </contour>
    <contour>
      <point x="309" y="207" type="line"/>
      <point x="309" y="527" type="line"/>
      <point x="295" y="527" type="line"/>
      <point x="295" y="207" type="line"/>
    </contour>
    <contour>
      <point x="240" y="210" type="curve"/>
      <point x="240" y="524" type="line"/>
      <point x="232" y="526"/>
      <point x="222" y="527"/>
      <point x="207" y="527" type="curve" smooth="yes"/>
      <point x="174" y="527" type="line"/>
      <point x="174" y="207" type="line"/>
      <point x="207" y="207" type="line" smooth="yes"/>
      <point x="222" y="207"/>
      <point x="232" y="208"/>
    </contour>
    <contour>
      <point x="119" y="45" type="line"/>
      <point x="119" y="655" type="line"/>
      <point x="105" y="655" type="line"/>
      <point x="105" y="45" type="line"/>
    </contour>
  </outline>
</glyph>
<glyph name="ae" format="1">
  <advance width="530"/>
  <unicode hex="00E6"/>
  <outline>
    <contour>
      <point x="505" y="70" type="line" smooth="yes"/>
      <point x="505" y="15"/>
      <point x="453" y="-5"/>
      <point x="352" y="-5" type="curve" smooth="yes"/>
      <point x="278" y="-5"/>
      <point x="235" y="6"/>
      <point x="213" y="36" type="curve"/>
      <point x="180" y="12"/>
      <point x="131" y="-5"/>
      <point x="95" y="-5" type="curve" smooth="yes"/>
      <point x="53" y="-5"/>
      <point x="25" y="8"/>
      <point x="25" y="51" type="curve" smooth="yes"/>
      <point x="25" y="201" type="line" smooth="yes"/>
      <point x="25" y="244"/>
      <point x="53" y="257"/>
      <point x="95" y="257" type="curve" smooth="yes"/>
      <point x="205" y="257" type="line"/>
      <point x="205" y="409" type="line"/>
      <point x="197" y="411"/>
      <point x="186" y="412"/>
      <point x="177" y="412" type="curve" smooth="yes"/>
      <point x="168" y="412"/>
      <point x="156" y="411"/>
      <point x="148" y="409" type="curve"/>
      <point x="148" y="295" type="line"/>
      <point x="31" y="295" type="line"/>
      <point x="31" y="390" type="line" smooth="yes"/>
      <point x="31" y="445"/>
      <point x="80" y="465"/>
      <point x="177" y="465" type="curve" smooth="yes"/>
      <point x="213" y="465"/>
      <point x="244" y="462"/>
      <point x="267" y="456" type="curve"/>
      <point x="290" y="462"/>
      <point x="318" y="465"/>
      <point x="355" y="465" type="curve" smooth="yes"/>
      <point x="456" y="465"/>
      <point x="505" y="445"/>
      <point x="505" y="390" type="curve" smooth="yes"/>
      <point x="505" y="209" type="line"/>
      <point x="325" y="209" type="line"/>
      <point x="325" y="51" type="line"/>
      <point x="333" y="49"/>
      <point x="345" y="48"/>
      <point x="355" y="48" type="curve" smooth="yes"/>
      <point x="365" y="48"/>
      <point x="377" y="49"/>
      <point x="385" y="51" type="curve"/>
      <point x="385" y="165" type="line"/>
      <point x="505" y="165" type="line"/>
    </contour>
    <contour>
      <point x="97" y="333" type="line"/>
      <point x="97" y="412" type="line"/>
      <point x="83" y="412" type="line"/>
      <point x="83" y="333" type="line"/>
    </contour>
    <contour>
      <point x="452" y="257" type="line"/>
      <point x="452" y="412" type="line"/>
      <point x="438" y="412" type="line"/>
      <point x="438" y="257" type="line"/>
    </contour>
    <contour>
      <point x="385" y="257" type="line"/>
      <point x="385" y="409" type="line"/>
      <point x="377" y="411"/>
      <point x="365" y="412"/>
      <point x="355" y="412" type="curve" smooth="yes"/>
      <point x="345" y="412"/>
      <point x="333" y="411"/>
      <point x="325" y="409" type="curve"/>
      <point x="325" y="257" type="line"/>
    </contour>
    <contour>
      <point x="272" y="48" type="line"/>
      <point x="272" y="412" type="line"/>
      <point x="258" y="412" type="line"/>
      <point x="258" y="48" type="line"/>
    </contour>
    <contour>
      <point x="205" y="77" type="curve"/>
      <point x="205" y="209" type="line"/>
      <point x="145" y="209" type="line"/>
      <point x="145" y="61" type="line"/>
      <point x="162" y="63"/>
      <point x="188" y="68"/>
    </contour>
    <contour>
      <point x="92" y="45" type="line"/>
      <point x="92" y="209" type="line"/>
      <point x="78" y="209" type="line"/>
      <point x="78" y="45" type="line"/>
    </contour>
    <contour>
      <point x="452" y="48" type="line"/>
      <point x="452" y="127" type="line"/>
      <point x="438" y="127" type="line"/>
      <point x="438" y="48" type="line"/>
    </contour>
  </outline>
</glyph>
<glyph name="ccedilla" format="1">
  <advance width="342"/>
  <unicode hex="00E7"/>
  <outline>
    <contour>
      <point x="321" y="70" type="line" smooth="yes"/>
      <point x="321" y="26"/>
      <point x="291" y="5"/>
      <point x="228" y="-2" type="curve"/>
      <point x="228" y="-44" type="line" smooth="yes"/>
      <point x="228" y="-87"/>
      <point x="200" y="-100"/>
      <point x="158" y="-100" type="curve" smooth="yes"/>
      <point x="83" y="-100" type="line"/>
      <point x="83" y="-52" type="line"/>
      <point x="118" y="-52" type="line"/>
      <point x="118" y="-2" type="line"/>
      <point x="55" y="5"/>
      <point x="25" y="26"/>
      <point x="25" y="70" type="curve" smooth="yes"/>
      <point x="25" y="390" type="line" smooth="yes"/>
      <point x="25" y="445"/>
      <point x="73" y="465"/>
      <point x="173" y="465" type="curve" smooth="yes"/>
      <point x="274" y="465"/>
      <point x="321" y="445"/>
      <point x="321" y="390" type="curve" smooth="yes"/>
      <point x="321" y="295" type="line"/>
      <point x="201" y="295" type="line"/>
      <point x="201" y="409" type="line"/>
      <point x="193" y="411"/>
      <point x="183" y="412"/>
      <point x="173" y="412" type="curve" smooth="yes"/>
      <point x="163" y="412"/>
      <point x="153" y="411"/>
      <point x="145" y="409" type="curve"/>
      <point x="145" y="51" type="line"/>
      <point x="153" y="49"/>
      <point x="163" y="48"/>
      <point x="173" y="48" type="curve" smooth="yes"/>
      <point x="183" y="48"/>
      <point x="193" y="49"/>
      <point x="201" y="51" type="curve"/>
      <point x="201" y="165" type="line"/>
      <point x="321" y="165" type="line"/>
    </contour>
    <contour>
      <point x="268" y="333" type="line"/>
      <point x="268" y="412" type="line"/>
      <point x="254" y="412" type="line"/>
      <point x="254" y="333" type="line"/>
    </contour>
    <contour>
      <point x="92" y="48" type="line"/>
      <point x="92" y="412" type="line"/>
      <point x="78" y="412" type="line"/>
      <point x="78" y="48" type="line"/>
    </contour>
    <contour>
      <point x="268" y="48" type="line"/>
      <point x="268" y="127" type="line"/>
      <point x="254" y="127" type="line"/>
      <point x="254" y="48" type="line"/>
    </contour>
    <contour>
      <point x="180" y="-57" type="line"/>
      <point x="180" y="3" type="line"/>
      <point x="166" y="3" type="line"/>
      <point x="166" y="-57" type="line"/>
    </contour>
  </outline>
</glyph>
<glyph name="thorn" format="1">
  <advance width="354"/>
  <unicode hex="00FE"/>
  <outline>
    <contour>
      <point x="329" y="51" type="line" smooth="yes"/>
      <point x="329" y="8"/>
      <point x="301" y="-5"/>
      <point x="259" y="-5" type="curve" smooth="yes"/>
      <point x="223" y="-5"/>
      <point x="185" y="10"/>
      <point x="149" y="31" type="curve"/>
      <point x="149" y="-52" type="line"/>
      <point x="179" y="-52" type="line"/>
      <point x="179" y="-100" type="line"/>
      <point x="-1" y="-100" type="line"/>
      <point x="-1" y="-52" type="line"/>
      <point x="29" y="-52" type="line"/>
      <point x="29" y="652" type="line"/>
      <point x="-1" y="652" type="line"/>
      <point x="-1" y="700" type="line"/>
      <point x="149" y="700" type="line"/>
      <point x="149" y="429" type="line"/>
      <point x="185" y="450"/>
      <point x="223" y="465"/>
      <point x="259" y="465" type="curve" smooth="yes"/>
      <point x="301" y="465"/>
      <point x="329" y="452"/>
      <point x="329" y="409" type="curve" smooth="yes"/>
    </contour>
    <contour>
      <point x="96" y="-55" type="line"/>
      <point x="96" y="655" type="line"/>
      <point x="82" y="655" type="line"/>
      <point x="82" y="-55" type="line"/>
    </contour>
    <contour>
      <point x="276" y="45" type="line"/>
      <point x="276" y="415" type="line"/>
      <point x="262" y="415" type="line"/>
      <point x="262" y="45" type="line"/>
    </contour>
    <contour>
      <point x="209" y="62" type="curve"/>
      <point x="209" y="398" type="line"/>
      <point x="192" y="396"/>
      <point x="168" y="391"/>
      <point x="149" y="382" type="curve"/>
      <point x="149" y="78" type="line"/>
      <point x="168" y="69"/>
      <point x="192" y="64"/>
    </contour>
  </outline>
</glyph>
<glyph name="Lslash" format="1">
  <advance width="371"/>
  <unicode hex="0141"/>
  <outline>
    <contour>
      <point x="348" y="0" type="line"/>
      <point x="20" y="0" type="line"/>
      <point x="20" y="48" type="line"/>
      <point x="50" y="48" type="line"/>
      <point x="50" y="290" type="line"/>
      <point x="20" y="273" type="line"/>
      <point x="20" y="333" type="line"/>
      <point x="50" y="350" type="line"/>
      <point x="50" y="652" type="line"/>
      <point x="20" y="652" type="line"/>
      <point x="20" y="700" type="line"/>
      <point x="204" y="700" type="line"/>
      <point x="204" y="652" type="line"/>
      <point x="174" y="652" type="line"/>
      <point x="174" y="418" type="line"/>
      <point x="224" y="446" type="line"/>
      <point x="224" y="386" type="line"/>
      <point x="174" y="358" type="line"/>
      <point x="174" y="48" type="line"/>
      <point x="224" y="48" type="line"/>
      <point x="224" y="240" type="line"/>
      <point x="348" y="240" type="line"/>
    </contour>
    <contour>
      <point x="119" y="45" type="line"/>
      <point x="119" y="655" type="line"/>
      <point x="105" y="655" type="line"/>
      <point x="105" y="45" type="line"/>
    </contour>
    <contour>
      <point x="293" y="45" type="line"/>
      <point x="293" y="199" type="line"/>
      <point x="279" y="199" type="line"/>
      <point x="279" y="45" type="line"/>
    </contour>
  </outline>
</glyph>
<glyph name="lslash" format="1">
  <advance width="205"/>
  <unicode hex="0142"/>
  <outline>
    <contour>
      <point x="195" y="0" type="line"/>
      <point x="15" y="0" type="line"/>
      <point x="15" y="48" type="line"/>
      <point x="45" y="48" type="line"/>
      <point x="45" y="290" type="line"/>
      <point x="15" y="273" type="line"/>
      <point x="15" y="333" type="line"/>
      <point x="45" y="350" type="line"/>
      <point x="45" y="652" type="line"/>
      <point x="15" y="652" type="line"/>
      <point x="15" y="700" type="line"/>
      <point x="165" y="700" type="line"/>
      <point x="165" y="416" type="line"/>
      <point x="195" y="433" type="line"/>
      <point x="195" y="373" type="line"/>
      <point x="165" y="356" type="line"/>
      <point x="165" y="48" type="line"/>
      <point x="195" y="48" type="line"/>
    </contour>
    <contour>
      <point x="112" y="45" type="line"/>
      <point x="112" y="655" type="line"/>
      <point x="98" y="655" type="line"/>
      <point x="98" y="45" type="line"/>
    </contour>
  </outline>
</glyph>
<glyph name="circumflex" format="1">
  <advance width="300"/>
  <unicode hex="02C6"/>
  <outline>
    <contour>
      <point x="280" y="491" type="line"/>
      <point x="192" y="491" type="line"/>
      <point x="150" y="535" type="line"/>
      <point x="108" y="491" type="line"/>
      <point x="20" y="491" type="line"/>
      <point x="20" y="524" type="line"/>
      <point x="117" y="622" type="line"/>
      <point x="183" y="622" type="line"/>
      <point x="280" y="524" type="line"/>
    </contour>
    <contour>
      <point x="232" y="520" type="line"/>
      <point x="155" y="593" type="line"/>
      <point x="145" y="593" type="line"/>
      <point x="68" y="520" type="line"/>
      <point x="82" y="520" type="line"/>
      <point x="150" y="583" type="line"/>
      <point x="218" y="520" type="line"/>
    </contour>
  </outline>
</glyph>
<glyph name="caron" format="1">
  <advance width="300"/>
  <unicode hex="02C7"/>
  <outline>
    <contour>
      <point x="280" y="589" type="line"/>
      <point x="183" y="491" type="line"/>
      <point x="117" y="491" type="line"/>
      <point x="20" y="589" type="line"/>
      <point x="20" y="622" type="line"/>
      <point x="108" y="622" type="line"/>
      <point x="150" y="578" type="line"/>
      <point x="192" y="622" type="line"/>
      <point x="280" y="622" type="line"/>
    </contour>
    <contour>
      <point x="232" y="593" type="line"/>
      <point x="218" y="593" type="line"/>
      <point x="150" y="530" type="line"/>
      <point x="82" y="593" type="line"/>
      <point x="68" y="593" type="line"/>
      <point x="145" y="520" type="line"/>
      <point x="155" y="520" type="line"/>
    </contour>
  </outline>
</glyph>
<glyph name="breve" format="1">
  <advance width="300"/>
  <unicode hex="02D8"/>
  <outline>
    <contour>
      <point x="276" y="569" type="line" smooth="yes"/>
      <point x="276" y="514"/>
      <point x="224" y="491"/>
      <point x="159" y="491" type="curve" smooth="yes"/>
      <point x="141" y="491" type="line" smooth="yes"/>
      <point x="76" y="491"/>
      <point x="24" y="514"/>
      <point x="24" y="569" type="curve" smooth="yes"/>
      <point x="24" y="622" type="line"/>
      <point x="117" y="622" type="line"/>
      <point x="117" y="591" type="line" smooth="yes"/>
      <point x="117" y="576"/>
      <point x="125" y="569"/>
      <point x="136" y="569" type="curve" smooth="yes"/>
      <point x="164" y="569" type="line" smooth="yes"/>
      <point x="175" y="569"/>
      <point x="183" y="576"/>
      <point x="183" y="591" type="curve" smooth="yes"/>
      <point x="183" y="622" type="line"/>
      <point x="276" y="622" type="line"/>
    </contour>
    <contour>
      <point x="236" y="576" type="curve" smooth="yes"/>
      <point x="236" y="591" type="line"/>
      <point x="222" y="591" type="line"/>
      <point x="222" y="575" type="line" smooth="yes"/>
      <point x="222" y="546"/>
      <point x="198" y="537"/>
      <point x="163" y="537" type="curve" smooth="yes"/>
      <point x="137" y="537" type="line" smooth="yes"/>
      <point x="102" y="537"/>
      <point x="78" y="546"/>
      <point x="78" y="575" type="curve" smooth="yes"/>
      <point x="78" y="591" type="line"/>
      <point x="64" y="591" type="line"/>
      <point x="64" y="576" type="line" smooth="yes"/>
      <point x="64" y="536"/>
      <point x="99" y="525"/>
      <point x="140" y="525" type="curve" smooth="yes"/>
      <point x="160" y="525" type="line" smooth="yes"/>
      <point x="201" y="525"/>
      <point x="236" y="536"/>
    </contour>
  </outline>
</glyph>
<glyph name="dotaccent" format="1">
  <advance width="300"/>
  <unicode hex="02D9"/>
  <outline>
    <contour>
      <point x="200" y="491" type="line"/>
      <point x="100" y="491" type="line"/>
      <point x="100" y="622" type="line"/>
      <point x="200" y="622" type="line"/>
    </contour>
    <contour>
      <point x="157" y="524" type="line"/>
      <point x="157" y="589" type="line"/>
      <point x="143" y="589" type="line"/>
      <point x="143" y="524" type="line"/>
    </contour>
  </outline>
</glyph>
<glyph name="ring" format="1">
  <advance width="300"/>
  <unicode hex="02DA"/>
  <outline>
    <contour>
      <point x="271" y="561" type="line" smooth="yes"/>
      <point x="271" y="512"/>
      <point x="227" y="491"/>
      <point x="150" y="491" type="curve" smooth="yes"/>
      <point x="74" y="491"/>
      <point x="29" y="512"/>
      <point x="29" y="561" type="curve" smooth="yes"/>
      <point x="29" y="595" type="line" smooth="yes"/>
      <point x="29" y="644"/>
      <point x="74" y="665"/>
      <point x="150" y="665" type="curve" smooth="yes"/>
      <point x="227" y="665"/>
      <point x="271" y="644"/>
      <point x="271" y="595" type="curve" smooth="yes"/>
    </contour>
    <contour>
      <point x="229" y="539" type="line"/>
      <point x="229" y="617" type="line"/>
      <point x="215" y="617" type="line"/>
      <point x="215" y="539" type="line"/>
    </contour>
    <contour>
      <point x="176" y="534" type="curve"/>
      <point x="176" y="622" type="line"/>
      <point x="167" y="624"/>
      <point x="159" y="624"/>
      <point x="150" y="624" type="curve" smooth="yes"/>
      <point x="141" y="624"/>
      <point x="133" y="624"/>
      <point x="124" y="622" type="curve"/>
      <point x="124" y="534" type="line"/>
      <point x="133" y="532"/>
      <point x="141" y="532"/>
      <point x="150" y="532" type="curve" smooth="yes"/>
      <point x="159" y="532"/>
      <point x="167" y="532"/>
    </contour>
    <contour>
      <point x="85" y="539" type="line"/>
      <point x="85" y="617" type="line"/>
      <point x="71" y="617" type="line"/>
      <point x="71" y="539" type="line"/>
    </contour>
  </outline>
</glyph>
<glyph name="ogonek" format="1">
  <advance width="300"/>
  <unicode hex="02DB"/>
  <outline>
    <contour>
      <point x="240" y="-100" type="line"/>
      <point x="165" y="-100" type="line" smooth="yes"/>
      <point x="123" y="-100"/>
      <point x="95" y="-87"/>
      <point x="95" y="-44" type="curve" smooth="yes"/>
      <point x="95" y="43" type="line"/>
      <point x="205" y="43" type="line"/>
      <point x="205" y="-52" type="line"/>
      <point x="240" y="-52" type="line"/>
    </contour>
    <contour>
      <point x="157" y="-57" type="line"/>
      <point x="157" y="3" type="line"/>
      <point x="143" y="3" type="line"/>
      <point x="143" y="-57" type="line"/>
    </contour>
  </outline>
</glyph>
<glyph name="hungarumlaut" format="1">
  <advance width="300"/>
  <unicode hex="02DD"/>
  <outline>
    <contour>
      <point x="308" y="622" type="line"/>
      <point x="238" y="491" type="line"/>
      <point x="128" y="491" type="line"/>
      <point x="198" y="622" type="line"/>
    </contour>
    <contour>
      <point x="172" y="622" type="line"/>
      <point x="102" y="491" type="line"/>
      <point x="-8" y="491" type="line"/>
      <point x="62" y="622" type="line"/>
    </contour>
    <contour>
      <point x="242" y="588" type="line"/>
      <point x="228" y="588" type="line"/>
      <point x="194" y="525" type="line"/>
      <point x="208" y="525" type="line"/>
    </contour>
    <contour>
      <point x="106" y="588" type="line"/>
      <point x="92" y="588" type="line"/>
      <point x="58" y="525" type="line"/>
      <point x="72" y="525" type="line"/>
    </contour>
  </outline>
</glyph>
<glyph name="endash" format="1">
  <advance width="320"/>
  <unicode hex="2013"/>
  <outline>
    <contour>
      <point x="295" y="326" type="line"/>
      <point x="25" y="326" type="line"/>
      <point x="25" y="380" type="line"/>
      <point x="295" y="380" type="line"/>
    </contour>
  </outline>
</glyph>
<glyph name="emdash" format="1">
  <advance width="440"/>
  <unicode hex="2014"/>
  <outline>
    <contour>
      <point x="415" y="326" type="line"/>
      <point x="25" y="326" type="line"/>
      <point x="25" y="380" type="line"/>
      <point x="415" y="380" type="line"/>
    </contour>
  </outline>
</glyph>
<glyph name="quoteleft" format="1">
  <advance width="190"/>
  <unicode hex="2018"/>
  <unicode hex="02BB"/>
  <outline>
    <contour>
      <point x="176" y="460" type="line"/>
      <point x="56" y="460" type="line"/>
      <point x="26" y="700" type="line"/>
      <point x="146" y="700" type="line"/>
    </contour>
    <contour>
      <point x="119" y="497" type="line"/>
      <point x="97" y="663" type="line"/>
      <point x="83" y="663" type="line"/>
      <point x="105" y="497" type="line"/>
    </contour>
  </outline>
</glyph>
<glyph name="quoteright" format="1">
  <advance width="190"/>
  <unicode hex="2019"/>
  <unicode hex="02BC"/>
  <outline>
    <contour>
      <point x="164" y="700" type="line"/>
      <point x="134" y="460" type="line"/>
      <point x="14" y="460" type="line"/>
      <point x="44" y="700" type="line"/>
    </contour>
    <contour>
      <point x="107" y="663" type="line"/>
      <point x="93" y="663" type="line"/>
      <point x="71" y="497" type="line"/>
      <point x="85" y="497" type="line"/>
    </contour>
  </outline>
</glyph>
<glyph name="quotesinglbase" format="1">
  <advance width="190"/>
  <unicode hex="201A"/>
  <outline>
    <contour>
      <point x="168" y="137" type="line"/>
      <point x="138" y="-100" type="line"/>
      <point x="18" y="-100" type="line"/>
      <point x="48" y="137" type="line"/>
    </contour>
    <contour>
      <point x="110" y="100" type="line"/>
      <point x="96" y="100" type="line"/>
      <point x="75" y="-63" type="line"/>
      <point x="89" y="-63" type="line"/>
    </contour>
  </outline>
</glyph>
<glyph name="quotedblleft" format="1">
  <advance width="350"/>
  <unicode hex="201C"/>
  <outline>
    <contour>
      <point x="336" y="460" type="line"/>
      <point x="216" y="460" type="line"/>
      <point x="186" y="700" type="line"/>
      <point x="306" y="700" type="line"/>
    </contour>
    <contour>
      <point x="176" y="460" type="line"/>
      <point x="56" y="460" type="line"/>
      <point x="26" y="700" type="line"/>
      <point x="146" y="700" type="line"/>
    </contour>
    <contour>
      <point x="279" y="497" type="line"/>
      <point x="257" y="663" type="line"/>
      <point x="243" y="663" type="line"/>
      <point x="265" y="497" type="line"/>
    </contour>
    <contour>
      <point x="119" y="497" type="line"/>
      <point x="97" y="663" type="line"/>
      <point x="83" y="663" type="line"/>
      <point x="105" y="497" type="line"/>
    </contour>
  </outline>
</glyph>
<glyph name="daggerdbl" format="1">
  <advance width="300"/>
  <unicode hex="2021"/>
  <outline>
    <contour>
      <point x="290" y="192" type="line"/>
      <point x="210" y="192" type="line"/>
      <point x="210" y="0" type="line"/>
      <point x="90" y="0" type="line"/>
      <point x="90" y="192" type="line"/>
      <point x="10" y="192" type="line"/>
      <point x="10" y="240" type="line"/>
      <point x="90" y="240" type="line"/>
      <point x="90" y="460" type="line"/>
      <point x="10" y="460" type="line"/>
      <point x="10" y="508" type="line"/>
      <point x="90" y="508" type="line"/>
      <point x="90" y="700" type="line"/>
      <point x="210" y="700" type="line"/>
      <point x="210" y="508" type="line"/>
      <point x="290" y="508" type="line"/>
      <point x="290" y="460" type="line"/>
      <point x="210" y="460" type="line"/>
      <point x="210" y="240" type="line"/>
      <point x="290" y="240" type="line"/>
    </contour>
    <contour>
      <point x="157" y="48" type="line"/>
      <point x="157" y="652" type="line"/>
      <point x="143" y="652" type="line"/>
      <point x="143" y="48" type="line"/>
    </contour>
  </outline>
</glyph>
<glyph name="ellipsis" format="1">
  <advance width="540"/>
  <unicode hex="2026"/>
  <outline>
    <contour>
      <point x="505" y="0" type="line"/>
      <point x="385" y="0" type="line"/>
      <point x="385" y="137" type="line"/>
      <point x="505" y="137" type="line"/>
    </contour>
    <contour>
      <point x="330" y="0" type="line"/>
      <point x="210" y="0" type="line"/>
      <point x="210" y="137" type="line"/>
      <point x="330" y="137" type="line"/>
    </contour>
    <contour>
      <point x="155" y="0" type="line"/>
      <point x="35" y="0" type="line"/>
      <point x="35" y="137" type="line"/>
      <point x="155" y="137" type="line"/>
    </contour>
    <contour>
      <point x="452" y="37" type="line"/>
      <point x="452" y="100" type="line"/>
      <point x="438" y="100" type="line"/>
      <point x="438" y="37" type="line"/>
    </contour>
    <contour>
      <point x="277" y="37" type="line"/>
      <point x="277" y="100" type="line"/>
      <point x="263" y="100" type="line"/>
      <point x="263" y="37" type="line"/>
    </contour>
    <contour>
      <point x="102" y="37" type="line"/>
      <point x="102" y="100" type="line"/>
      <point x="88" y="100" type="line"/>
      <point x="88" y="37" type="line"/>
    </contour>
  </outline>
</glyph>
<glyph name="guilsinglleft" format="1">
  <advance width="240"/>
  <unicode hex="2039"/>
  <outline>
    <contour>
      <point x="225" y="0" type="line"/>
      <point x="89" y="0" type="line"/>
      <point x="10" y="230" type="line"/>
      <point x="89" y="460" type="line"/>
      <point x="225" y="460" type="line"/>
      <point x="143" y="230" type="line"/>
    </contour>
    <contour>
      <point x="151" y="48" type="line"/>
      <point x="86" y="230" type="line"/>
      <point x="151" y="412" type="line"/>
      <point x="133" y="412" type="line"/>
      <point x="68" y="230" type="line"/>
      <point x="133" y="48" type="line"/>
    </contour>
  </outline>
</glyph>
<glyph name="trademark" format="1">
  <advance width="630"/>
  <unicode hex="2122"/>
  <outline>
    <contour>
      <point x="611" y="206" type="line"/>
      <point x="507" y="206" type="line"/>
      <point x="507" y="556" type="line"/>
      <point x="469" y="206" type="line"/>
      <point x="397" y="206" type="line"/>
      <point x="359" y="556" type="line"/>
      <point x="359" y="206" type="line"/>
      <point x="299" y="206" type="line"/>
      <point x="299" y="240" type="line"/>
      <point x="320" y="240" type="line"/>
      <point x="320" y="667" type="line"/>
      <point x="299" y="667" type="line"/>
      <point x="299" y="700" type="line"/>
      <point x="416" y="700" type="line"/>
      <point x="453" y="362" type="line"/>
      <point x="493" y="700" type="line"/>
      <point x="611" y="700" type="line"/>
      <point x="611" y="667" type="line"/>
      <point x="590" y="667" type="line"/>
      <point x="590" y="240" type="line"/>
      <point x="611" y="240" type="line"/>
    </contour>
    <contour>
      <point x="281" y="532" type="line"/>
      <point x="211" y="532" type="line"/>
      <point x="211" y="668" type="line"/>
      <point x="192" y="668" type="line"/>
      <point x="192" y="240" type="line"/>
      <point x="215" y="240" type="line"/>
      <point x="215" y="206" type="line"/>
      <point x="83" y="206" type="line"/>
      <point x="83" y="240" type="line"/>
      <point x="106" y="240" type="line"/>
      <point x="106" y="668" type="line"/>
      <point x="87" y="668" type="line"/>
      <point x="87" y="532" type="line"/>
      <point x="17" y="532" type="line"/>
      <point x="17" y="700" type="line"/>
      <point x="281" y="700" type="line"/>
    </contour>
    <contour>
      <point x="251" y="561" type="line"/>
      <point x="251" y="668" type="line"/>
      <point x="241" y="668" type="line"/>
      <point x="241" y="561" type="line"/>
    </contour>
    <contour>
      <point x="57" y="561" type="line"/>
      <point x="57" y="668" type="line"/>
      <point x="47" y="668" type="line"/>
      <point x="47" y="561" type="line"/>
    </contour>
    <contour>
      <point x="553" y="238" type="line"/>
      <point x="553" y="669" type="line"/>
      <point x="543" y="669" type="line"/>
      <point x="543" y="238" type="line"/>
    </contour>
    <contour>
      <point x="437" y="238" type="line"/>
      <point x="385" y="669" type="line"/>
      <point x="375" y="669" type="line"/>
      <point x="427" y="238" type="line"/>
    </contour>
    <contour>
      <point x="154" y="238" type="line"/>
      <point x="154" y="668" type="line"/>
      <point x="144" y="668" type="line"/>
      <point x="144" y="238" type="line"/>
    </contour>
  </outline>
</glyph>
<glyph name="radical" format="1">
  <advance width="354"/>
  <unicode hex="221A"/>
  <outline>
    <contour>
      <point x="345" y="700" type="line"/>
      <point x="224" y="0" type="line"/>
      <point x="100" y="0" type="line"/>
      <point x="37" y="295" type="line"/>
      <point x="5" y="295" type="line"/>
      <point x="5" y="343" type="line"/>
      <point x="143" y="343" type="line"/>
      <point x="188" y="114" type="line"/>
      <point x="278" y="700" type="line"/>
    </contour>
    <contour>
      <point x="154" y="45" type="line"/>
      <point x="98" y="298" type="line"/>
      <point x="85" y="298" type="line"/>
      <point x="141" y="45" type="line"/>
    </contour>
  </outline>
</glyph>
<glyph name="apple" format="1">
  <advance width="560"/>
  <unicode hex="F8FF"/>
  <outline>
    <contour>
      <point x="550" y="0" type="line"/>
      <point x="400" y="0" type="line"/>
      <point x="400" y="398" type="line"/>
      <point x="383" y="396"/>
      <point x="359" y="391"/>
      <point x="340" y="382" type="curve"/>
      <point x="340" y="-52" type="line"/>
      <point x="370" y="-52" type="line"/>
      <point x="370" y="-100" type="line"/>
      <point x="190" y="-100" type="line"/>
      <point x="190" y="-52" type="line"/>
      <point x="220" y="-52" type="line"/>
      <point x="220" y="31" type="line"/>
      <point x="184" y="10"/>
      <point x="146" y="-5"/>
      <point x="110" y="-5" type="curve" smooth="yes"/>
      <point x="68" y="-5"/>
      <point x="40" y="8"/>
      <point x="40" y="51" type="curve" smooth="yes"/>
      <point x="40" y="412" type="line"/>
      <point x="10" y="412" type="line"/>
      <point x="10" y="460" type="line"/>
      <point x="160" y="460" type="line"/>
      <point x="160" y="62" type="line"/>
      <point x="177" y="64"/>
      <point x="201" y="69"/>
      <point x="220" y="78" type="curve"/>
      <point x="220" y="652" type="line"/>
      <point x="190" y="652" type="line"/>
      <point x="190" y="700" type="line"/>
      <point x="370" y="700" type="line"/>
      <point x="370" y="652" type="line"/>
      <point x="340" y="652" type="line"/>
      <point x="340" y="429" type="line"/>
      <point x="376" y="450"/>
      <point x="414" y="465"/>
      <point x="450" y="465" type="curve" smooth="yes"/>
      <point x="492" y="465"/>
      <point x="520" y="452"/>
      <point x="520" y="409" type="curve" smooth="yes"/>
      <point x="520" y="48" type="line"/>
      <point x="550" y="48" type="line"/>
    </contour>
    <contour>
      <point x="287" y="-55" type="line"/>
      <point x="287" y="655" type="line"/>
      <point x="273" y="655" type="line"/>
      <point x="273" y="-55" type="line"/>
    </contour>
    <contour>
      <point x="467" y="45" type="line"/>
      <point x="467" y="415" type="line"/>
      <point x="453" y="415" type="line"/>
      <point x="453" y="45" type="line"/>
    </contour>
    <contour>
      <point x="107" y="45" type="line"/>
      <point x="107" y="415" type="line"/>
      <point x="93" y="415" type="line"/>
      <point x="93" y="45" type="line"/>
    </contour>
  </outline>
</glyph>
<glyph name="f_f" format="1">
  <advance width="403"/>
  <unicode hex="FB00"/>
  <outline>
    <contour>
      <point x="406" y="652" type="line"/>
      <point x="356" y="652" type="line"/>
      <point x="356" y="460" type="line"/>
      <point x="386" y="460" type="line"/>
      <point x="386" y="412" type="line"/>
      <point x="356" y="412" type="line"/>
      <point x="356" y="48" type="line"/>
      <point x="386" y="48" type="line"/>
      <point x="386" y="0" type="line"/>
      <point x="236" y="0" type="line"/>
      <point x="236" y="412" type="line"/>
      <point x="166" y="412" type="line"/>
      <point x="166" y="48" type="line"/>
      <point x="196" y="48" type="line"/>
      <point x="196" y="0" type="line"/>
      <point x="16" y="0" type="line"/>
      <point x="16" y="48" type="line"/>
      <point x="46" y="48" type="line"/>
      <point x="46" y="412" type="line"/>
      <point x="16" y="412" type="line"/>
      <point x="16" y="460" type="line"/>
      <point x="46" y="460" type="line"/>
      <point x="46" y="644" type="line" smooth="yes"/>
      <point x="46" y="687"/>
      <point x="74" y="700"/>
      <point x="116" y="700" type="curve" smooth="yes"/>
      <point x="209" y="700" type="line"/>
      <point x="209" y="652" type="line"/>
      <point x="166" y="652" type="line"/>
      <point x="166" y="460" type="line"/>
      <point x="236" y="460" type="line"/>
      <point x="236" y="644" type="line" smooth="yes"/>
      <point x="236" y="687"/>
      <point x="264" y="700"/>
      <point x="306" y="700" type="curve" smooth="yes"/>
      <point x="406" y="700" type="line"/>
    </contour>
    <contour>
      <point x="303" y="45" type="line"/>
      <point x="303" y="655" type="line"/>
      <point x="289" y="655" type="line"/>
      <point x="289" y="45" type="line"/>
    </contour>
    <contour>
      <point x="113" y="45" type="line"/>
      <point x="113" y="655" type="line"/>
      <point x="99" y="655" type="line"/>
      <point x="99" y="45" type="line"/>
    </contour>
  </outline>
</glyph>
<glyph name="fi" format="1">
  <advance width="396"/>
  <unicode hex="FB01"/>
  <outline>
    <contour>
      <point x="386" y="0" type="line"/>
      <point x="236" y="0" type="line"/>
      <point x="236" y="412" type="line"/>
      <point x="166" y="412" type="line"/>
      <point x="166" y="48" type="line"/>
      <point x="196" y="48" type="line"/>
      <point x="196" y="0" type="line"/>
      <point x="16" y="0" type="line"/>
      <point x="16" y="48" type="line"/>
      <point x="46" y="48" type="line"/>
      <point x="46" y="412" type="line"/>
      <point x="16" y="412" type="line"/>
      <point x="16" y="460" type="line"/>
      <point x="46" y="460" type="line"/>
      <point x="46" y="644" type="line" smooth="yes"/>
      <point x="46" y="687"/>
      <point x="74" y="700"/>
      <point x="116" y="700" type="curve" smooth="yes"/>
      <point x="356" y="700" type="line"/>
      <point x="356" y="525" type="line"/>
      <point x="236" y="525" type="line"/>
      <point x="236" y="652" type="line"/>
      <point x="166" y="652" type="line"/>
      <point x="166" y="460" type="line"/>
      <point x="356" y="460" type="line"/>
      <point x="356" y="48" type="line"/>
      <point x="386" y="48" type="line"/>
    </contour>
    <contour>
      <point x="303" y="562" type="line"/>
      <point x="303" y="655" type="line"/>
      <point x="289" y="655" type="line"/>
      <point x="289" y="562" type="line"/>
    </contour>
    <contour>
      <point x="113" y="45" type="line"/>
      <point x="113" y="655" type="line"/>
      <point x="99" y="655" type="line"/>
      <point x="99" y="45" type="line"/>
    </contour>
    <contour>
      <point x="303" y="45" type="line"/>
      <point x="303" y="412" type="line"/>
      <point x="289" y="412" type="line"/>
      <point x="289" y="45" type="line"/>
    </contour>
  </outline>
</glyph>
<glyph name="f_f_l" format="1">
  <advance width="586"/>
  <unicode hex="FB04"/>
  <outline>
    <contour>
      <point x="576" y="0" type="line"/>
      <point x="426" y="0" type="line"/>
      <point x="426" y="652" type="line"/>
      <point x="356" y="652" type="line"/>
      <point x="356" y="460" type="line"/>
      <point x="386" y="460" type="line"/>
      <point x="386" y="412" type="line"/>
      <point x="356" y="412" type="line"/>
      <point x="356" y="48" type="line"/>
      <point x="386" y="48" type="line"/>
      <point x="386" y="0" type="line"/>
      <point x="236" y="0" type="line"/>
      <point x="236" y="412" type="line"/>
      <point x="166" y="412" type="line"/>
      <point x="166" y="48" type="line"/>
      <point x="196" y="48" type="line"/>
      <point x="196" y="0" type="line"/>
      <point x="16" y="0" type="line"/>
      <point x="16" y="48" type="line"/>
      <point x="46" y="48" type="line"/>
      <point x="46" y="412" type="line"/>
      <point x="16" y="412" type="line"/>
      <point x="16" y="460" type="line"/>
      <point x="46" y="460" type="line"/>
      <point x="46" y="644" type="line" smooth="yes"/>
      <point x="46" y="687"/>
      <point x="74" y="700"/>
      <point x="116" y="700" type="curve" smooth="yes"/>
      <point x="209" y="700" type="line"/>
      <point x="209" y="652" type="line"/>
      <point x="166" y="652" type="line"/>
      <point x="166" y="460" type="line"/>
      <point x="236" y="460" type="line"/>
      <point x="236" y="644" type="line" smooth="yes"/>
      <point x="236" y="687"/>
      <point x="264" y="700"/>
      <point x="306" y="700" type="curve" smooth="yes"/>
      <point x="546" y="700" type="line"/>
      <point x="546" y="48" type="line"/>
      <point x="576" y="48" type="line"/>
    </contour>
    <contour>
      <point x="493" y="45" type="line"/>
      <point x="493" y="655" type="line"/>
      <point x="479" y="655" type="line"/>
      <point x="479" y="45" type="line"/>
    </contour>
    <contour>
      <point x="303" y="45" type="line"/>
      <point x="303" y="655" type="line"/>
      <point x="289" y="655" type="line"/>
      <point x="289" y="45" type="line"/>
    </contour>
    <contour>
      <point x="113" y="45" type="line"/>
      <point x="113" y="655" type="line"/>
      <point x="99" y="655" type="line"/>
      <point x="99" y="45" type="line"/>
    </contour>
  </outline>
</glyph>
<glyph name="registered" format="1">
  <advance width="465"/>
  <outline>
    <contour>
      <point x="434" y="90" type="line" smooth="yes"/>
      <point x="434" y="7"/>
      <point x="338" y="-5"/>
      <point x="232" y="-5" type="curve" smooth="yes"/>
      <point x="125" y="-5"/>
      <point x="30" y="7"/>
      <point x="30" y="90" type="curve" smooth="yes"/>
      <point x="30" y="610" type="line" smooth="yes"/>
      <point x="30" y="693"/>
      <point x="126" y="705"/>
      <point x="232" y="705" type="curve" smooth="yes"/>
      <point x="339" y="705"/>
      <point x="434" y="693"/>
      <point x="434" y="610" type="curve" smooth="yes"/>
    </contour>
    <contour>
      <point x="398" y="90" type="curve" smooth="yes"/>
      <point x="398" y="610" type="line" smooth="yes"/>
      <point x="398" y="670"/>
      <point x="313" y="674"/>
      <point x="232" y="674" type="curve" smooth="yes"/>
      <point x="152" y="674"/>
      <point x="66" y="670"/>
      <point x="66" y="610" type="curve" smooth="yes"/>
      <point x="66" y="90" type="line" smooth="yes"/>
      <point x="66" y="30"/>
      <point x="151" y="26"/>
      <point x="232" y="26" type="curve" smooth="yes"/>
      <point x="312" y="26"/>
      <point x="398" y="30"/>
    </contour>
    <contour>
      <point x="364" y="89" type="line"/>
      <point x="258" y="89" type="line"/>
      <point x="258" y="337" type="line"/>
      <point x="253" y="339"/>
      <point x="246" y="339"/>
      <point x="235" y="339" type="curve" smooth="yes"/>
      <point x="214" y="339" type="line"/>
      <point x="214" y="123" type="line"/>
      <point x="235" y="123" type="line"/>
      <point x="235" y="89" type="line"/>
      <point x="106" y="89" type="line"/>
      <point x="106" y="123" type="line"/>
      <point x="127" y="123" type="line"/>
      <point x="127" y="585" type="line"/>
      <point x="106" y="585" type="line"/>
      <point x="106" y="619" type="line"/>
      <point x="236" y="619" type="line" smooth="yes"/>
      <point x="307" y="619"/>
      <point x="345" y="605"/>
      <point x="345" y="567" type="curve" smooth="yes"/>
      <point x="345" y="407" type="line" smooth="yes"/>
      <point x="345" y="375"/>
      <point x="330" y="363"/>
      <point x="303" y="356" type="curve"/>
      <point x="330" y="349"/>
      <point x="345" y="337"/>
      <point x="345" y="305" type="curve" smooth="yes"/>
      <point x="345" y="123" type="line"/>
      <point x="364" y="123" type="line"/>
    </contour>
    <contour>
      <point x="307" y="383" type="line"/>
      <point x="307" y="585" type="line"/>
      <point x="297" y="585" type="line"/>
      <point x="297" y="383" type="line"/>
    </contour>
    <contour>
      <point x="258" y="375" type="curve"/>
      <point x="258" y="583" type="line"/>
      <point x="253" y="585"/>
      <point x="246" y="585"/>
      <point x="235" y="585" type="curve" smooth="yes"/>
      <point x="214" y="585" type="line"/>
      <point x="214" y="373" type="line"/>
      <point x="235" y="373" type="line" smooth="yes"/>
      <point x="246" y="373"/>
      <point x="253" y="374"/>
    </contour>
    <contour>
      <point x="175" y="121" type="line"/>
      <point x="175" y="587" type="line"/>
      <point x="165" y="587" type="line"/>
      <point x="165" y="121" type="line"/>
    </contour>
    <contour>
      <point x="307" y="121" type="line"/>
      <point x="307" y="329" type="line"/>
      <point x="297" y="329" type="line"/>
      <point x="297" y="121" type="line"/>
    </contour>
  </outline>
</glyph>
